<svg width="48" height="48" viewBox="0 0 48 48" fill="none" xmlns="http://www.w3.org/2000/svg">
<path d="M47.5332 19.2996H45.6V19.2H24V28.8H37.5636C35.5848 34.3884 30.2676 38.4 24 38.4C16.0476 38.4 9.6 31.9524 9.6 24C9.6 16.0476 16.0476 9.6 24 9.6C27.6708 9.6 31.0104 10.9848 33.5532 13.2468L40.3416 6.4584C36.0552 2.4636 30.3216 0 24 0C10.746 0 0 10.746 0 24C0 37.254 10.746 48 24 48C37.254 48 48 37.254 48 24C48 22.3908 47.8344 20.82 47.5332 19.2996Z" fill="#FFC107"/>
<path d="M3 13.0966L10.7647 19C12.8656 13.6075 17.9539 9.80013 23.9082 9.80013C27.5229 9.80013 30.8114 11.2138 33.3154 13.523L40 6.59304C35.7791 2.51496 30.1332 0 23.9082 0C14.8307 0 6.95855 5.31289 3 13.0966Z" fill="#FF3D00"/>
<path d="M23.6759 48C29.965 48 35.6794 45.5204 40 41.488L32.4643 34.9183C29.9376 36.898 26.8502 37.9687 23.6759 37.9661C17.3429 37.9661 11.9657 33.8058 9.9399 28L2 34.3025C6.0296 42.4262 14.213 48 23.6759 48Z" fill="#4CAF50"/>
<path d="M47.5332 20.0926H45.6V20H24V28.9228H37.5636C36.617 31.3948 34.912 33.555 32.6592 35.1364L32.6628 35.1341L40.0908 40.9763C39.5652 41.4202 48 35.6148 48 24.4614C48 22.9657 47.8344 21.5057 47.5332 20.0926Z" fill="#1976D2"/>
</svg>
