<svg width="64" height="64" viewBox="0 0 64 64" fill="none" xmlns="http://www.w3.org/2000/svg">
<g clip-path="url(#clip0_351_20729)">
<path d="M10 53C9.73478 53 9.48043 52.8946 9.29289 52.7071C9.10536 52.5196 9 52.2652 9 52C9 51.7348 9.10536 51.4804 9.29289 51.2929C9.48043 51.1054 9.73478 51 10 51C12 51 14.47 47.66 15.17 46.49C15.2559 46.345 15.377 46.2241 15.5221 46.1384C15.6672 46.0527 15.8316 46.0051 16 46H22C22.4369 46.0417 22.8776 45.9902 23.2931 45.8488C23.7085 45.7074 24.0892 45.4795 24.41 45.18C24.7113 44.8483 24.9154 44.44 25 44H15C12.68 44 10.91 47.41 10.89 47.45C10.8069 47.6149 10.6798 47.7536 10.5227 47.8507C10.3656 47.9478 10.1847 47.9994 10 48H6C5.73478 48 5.48043 47.8946 5.29289 47.7071C5.10536 47.5196 5 47.2652 5 47C5 46.7348 5.10536 46.4804 5.29289 46.2929C5.48043 46.1054 5.73478 46 6 46H9.42C10.16 44.78 12.15 42 15 42H26C26.2457 41.9982 26.4834 42.087 26.6679 42.2493C26.8523 42.4116 26.9705 42.6361 27 42.88C27.1272 44.1815 26.7395 45.481 25.92 46.5C25.4144 47.0192 24.8019 47.4222 24.125 47.6812C23.4481 47.9402 22.7231 48.049 22 48H16.55C15.64 49.39 13 53 10 53Z" fill="#5592BC"/>
<path d="M22 0H2C1.46957 0 0.960859 0.210714 0.585786 0.585786C0.210714 0.960859 0 1.46957 0 2L0 14C0 14.5304 0.210714 15.0391 0.585786 15.4142C0.960859 15.7893 1.46957 16 2 16H22C22.5304 16 23.0391 15.7893 23.4142 15.4142C23.7893 15.0391 24 14.5304 24 14V2C24 1.46957 23.7893 0.960859 23.4142 0.585786C23.0391 0.210714 22.5304 0 22 0V0ZM22 14H2V2H22V14Z" fill="#D0E7FC"/>
<path d="M21.72 1.44L12.19 7.41L1.58997 1.31" stroke="#D0E7FC" stroke-width="2" stroke-linecap="round" stroke-linejoin="round"/>
<path d="M2.19995 14L8.95995 9.18" stroke="#D0E7FC" stroke-width="2" stroke-miterlimit="10" stroke-linecap="round"/>
<path d="M22.83 14L15.01 9.18" stroke="#D0E7FC" stroke-width="2" stroke-miterlimit="10" stroke-linecap="round"/>
<path d="M8 20H2C1.46957 20 0.960859 20.2107 0.585786 20.5858C0.210714 20.9609 0 21.4696 0 22L0 30C0 30.5304 0.210714 31.0391 0.585786 31.4142C0.960859 31.7893 1.46957 32 2 32H8C8.53043 32 9.03914 31.7893 9.41421 31.4142C9.78929 31.0391 10 30.5304 10 30V22C10 21.4696 9.78929 20.9609 9.41421 20.5858C9.03914 20.2107 8.53043 20 8 20ZM8 30H2V22H8V30Z" fill="#5592BC"/>
<path d="M32 35.77L22 34V18L32 16.23V35.77Z" fill="#87CFFF"/>
<path d="M62.74 48.26C61.9299 50.1147 60.7647 51.7929 59.31 53.2C57.8448 54.6242 56.1204 55.7546 54.23 56.53C50.2369 58.1617 45.7631 58.1617 41.77 56.53C39.8767 55.7544 38.1491 54.6241 36.68 53.2C35.2253 51.7929 34.0601 50.1147 33.25 48.26" stroke="#D0E7FC" stroke-width="2" stroke-linecap="round" stroke-linejoin="round"/>
<path d="M60 40V64C60 64.5304 59.7893 65.0391 59.4142 65.4142C59.0391 65.7893 58.5304 66 58 66H38C37.4696 66 36.9609 65.7893 36.5858 65.4142C36.2107 65.0391 36 64.5304 36 64V36C36 35.4696 36.2107 34.9609 36.5858 34.5858C36.9609 34.2107 37.4696 34 38 34H54" fill="#E1F1FF"/>
<path d="M60 40H56C55.4696 40 54.9609 39.7893 54.5858 39.4142C54.2107 39.0391 54 38.5304 54 38V34L60 40Z" fill="#D0E7FC"/>
<path d="M50 40H38V42H50V40Z" fill="#D0E7FC"/>
<path d="M54 44H42V46H54V44Z" fill="#D0E7FC"/>
<path d="M54 48H42V50H54V48Z" fill="#D0E7FC"/>
<path d="M62.74 48.26C61.9299 50.1147 60.7647 51.7929 59.31 53.2C57.8448 54.6242 56.1204 55.7546 54.23 56.53C50.2369 58.1617 45.7631 58.1617 41.77 56.53C39.8767 55.7544 38.1491 54.6241 36.68 53.2C35.2253 51.7929 34.0601 50.1147 33.25 48.26" stroke="#D0E7FC" stroke-width="2" stroke-linecap="round" stroke-linejoin="round"/>
<path d="M52.9 54.77L57.49 56.12L62.08 57.47L57.7 59.58L55.59 63.96L54.24 59.37L52.9 54.77Z" fill="#9ED6FD"/>
<path d="M58.3439 58.9546L57.2106 60.084L60.5988 63.484L61.7321 62.3546L58.3439 58.9546Z" fill="#9ED6FD"/>
<path d="M41 12C33 16 21 18 21 18V34C21 34 33 34 41 38V12Z" stroke="#5592BC" stroke-width="2" stroke-linecap="round" stroke-linejoin="round"/>
<path d="M43 40C45.7614 40 48 33.2843 48 25C48 16.7157 45.7614 10 43 10C40.2386 10 38 16.7157 38 25C38 33.2843 40.2386 40 43 40Z" fill="#CDE3FA"/>
<path d="M20 18H8V34H20V18Z" fill="#CDE3FA"/>
<path d="M20 16H8C7.46957 16 6.96086 16.2107 6.58579 16.5858C6.21071 16.9609 6 17.4696 6 18V34C6 34.5304 6.21071 35.0391 6.58579 35.4142C6.96086 35.7893 7.46957 36 8 36H20C20.5304 36 21.0391 35.7893 21.4142 35.4142C21.7893 35.0391 22 34.5304 22 34V18C22 17.4696 21.7893 16.9609 21.4142 16.5858C21.0391 16.2107 20.5304 16 20 16ZM20 34H8V18H20V34Z" fill="#5592BC"/>
<path d="M38 22C40.67 22 42 23.35 42 25C42 26.65 40.67 28 38 28V22Z" fill="#87CFFF"/>
<path d="M38.23 20H38V22H38.23C39.0256 22 39.7887 22.3161 40.3513 22.8787C40.9139 23.4413 41.23 24.2044 41.23 25C41.23 25.7956 40.9139 26.5587 40.3513 27.1213C39.7887 27.6839 39.0256 28 38.23 28H38V30H38.23C39.5561 30 40.8279 29.4732 41.7655 28.5355C42.7032 27.5979 43.23 26.3261 43.23 25C43.23 23.6739 42.7032 22.4021 41.7655 21.4645C40.8279 20.5268 39.5561 20 38.23 20Z" fill="#5592BC"/>
<path d="M43 40C45.7614 40 48 33.2843 48 25C48 16.7157 45.7614 10 43 10C40.2386 10 38 16.7157 38 25C38 33.2843 40.2386 40 43 40Z" stroke="#5592BC" stroke-width="2" stroke-miterlimit="10"/>
<path d="M6 22H2V30H6V22Z" fill="#87CFFF"/>
<path d="M57.83 37C64.14 30.36 64.69 19.89 57.83 14.53" stroke="#5592BC" stroke-width="2" stroke-miterlimit="10" stroke-linecap="round"/>
<path d="M57.5 31C59.0682 29.3824 59.9452 27.218 59.9452 24.965C59.9452 22.712 59.0682 20.5476 57.5 18.93" stroke="#5592BC" stroke-width="2" stroke-miterlimit="10" stroke-linecap="round"/>
<path d="M4 46H2V62H4V46Z" fill="#CDE3FA"/>
<path d="M16.62 36.66L30.44 49.75L20.61 50.45L11.09 41.15L16.62 36.66Z" fill="#87CFFF" stroke="#5592BC" stroke-width="2" stroke-linejoin="round"/>
<path d="M0 44V64H6V44H0ZM4 62H2V46H4V62Z" fill="#5592BC"/>
<path d="M29 52H23C22.2044 52 21.4413 51.6839 20.8787 51.1213C20.3161 50.5587 20 49.7956 20 49C20 48.2044 20.3161 47.4413 20.8787 46.8787C21.4413 46.3161 22.2044 46 23 46H29C29.7956 46 30.5587 46.3161 31.1213 46.8787C31.6839 47.4413 32 48.2044 32 49C32 49.7956 31.6839 50.5587 31.1213 51.1213C30.5587 51.6839 29.7956 52 29 52ZM23 48C22.7348 48 22.4804 48.1054 22.2929 48.2929C22.1054 48.4804 22 48.7348 22 49C22 49.2652 22.1054 49.5196 22.2929 49.7071C22.4804 49.8946 22.7348 50 23 50H29C29.2652 50 29.5196 49.8946 29.7071 49.7071C29.8946 49.5196 30 49.2652 30 49C30 48.7348 29.8946 48.4804 29.7071 48.2929C29.5196 48.1054 29.2652 48 29 48H23Z" fill="#5592BC"/>
<path d="M23 48C22.7348 48 22.4804 48.1054 22.2929 48.2929C22.1054 48.4804 22 48.7348 22 49C22 49.2652 22.1054 49.5196 22.2929 49.7071C22.4804 49.8946 22.7348 50 23 50H29C29.2652 50 29.5196 49.8946 29.7071 49.7071C29.8946 49.5196 30 49.2652 30 49C30 48.7348 29.8946 48.4804 29.7071 48.2929C29.5196 48.1054 29.2652 48 29 48H23Z" fill="white"/>
<path d="M23 52C22.7348 52 22.4804 52.1054 22.2929 52.2929C22.1054 52.4804 22 52.7348 22 53C22 53.2652 22.1054 53.5196 22.2929 53.7071C22.4804 53.8946 22.7348 54 23 54H29C29.2652 54 29.5196 53.8946 29.7071 53.7071C29.8946 53.5196 30 53.2652 30 53C30 52.7348 29.8946 52.4804 29.7071 52.2929C29.5196 52.1054 29.2652 52 29 52H23Z" fill="white"/>
<path d="M23 56C22.7348 56 22.4804 56.1054 22.2929 56.2929C22.1054 56.4804 22 56.7348 22 57C22 57.2652 22.1054 57.5196 22.2929 57.7071C22.4804 57.8946 22.7348 58 23 58H29C29.2652 58 29.5196 57.8946 29.7071 57.7071C29.8946 57.5196 30 57.2652 30 57C30 56.7348 29.8946 56.4804 29.7071 56.2929C29.5196 56.1054 29.2652 56 29 56H23Z" fill="white"/>
<path d="M29 56H23C22.2044 56 21.4413 55.6839 20.8787 55.1213C20.3161 54.5587 20 53.7956 20 53C20 52.2044 20.3161 51.4413 20.8787 50.8787C21.4413 50.3161 22.2044 50 23 50H29C29.7956 50 30.5587 50.3161 31.1213 50.8787C31.6839 51.4413 32 52.2044 32 53C32 53.7956 31.6839 54.5587 31.1213 55.1213C30.5587 55.6839 29.7956 56 29 56ZM23 52C22.7348 52 22.4804 52.1054 22.2929 52.2929C22.1054 52.4804 22 52.7348 22 53C22 53.2652 22.1054 53.5196 22.2929 53.7071C22.4804 53.8946 22.7348 54 23 54H29C29.2652 54 29.5196 53.8946 29.7071 53.7071C29.8946 53.5196 30 53.2652 30 53C30 52.7348 29.8946 52.4804 29.7071 52.2929C29.5196 52.1054 29.2652 52 29 52H23Z" fill="#5592BC"/>
<path d="M29 60H23C22.2044 60 21.4413 59.6839 20.8787 59.1213C20.3161 58.5587 20 57.7956 20 57C20 56.2044 20.3161 55.4413 20.8787 54.8787C21.4413 54.3161 22.2044 54 23 54H29C29.7956 54 30.5587 54.3161 31.1213 54.8787C31.6839 55.4413 32 56.2044 32 57C32 57.7956 31.6839 58.5587 31.1213 59.1213C30.5587 59.6839 29.7956 60 29 60ZM23 56C22.7348 56 22.4804 56.1054 22.2929 56.2929C22.1054 56.4804 22 56.7348 22 57C22 57.2652 22.1054 57.5196 22.2929 57.7071C22.4804 57.8946 22.7348 58 23 58H29C29.2652 58 29.5196 57.8946 29.7071 57.7071C29.8946 57.5196 30 57.2652 30 57C30 56.7348 29.8946 56.4804 29.7071 56.2929C29.5196 56.1054 29.2652 56 29 56H23Z" fill="#5592BC"/>
<path d="M27 64H23C22.2044 64 21.4413 63.6839 20.8787 63.1213C20.3161 62.5587 20 61.7956 20 61C20 60.2044 20.3161 59.4413 20.8787 58.8787C21.4413 58.3161 22.2044 58 23 58H27C27.7956 58 28.5587 58.3161 29.1213 58.8787C29.6839 59.4413 30 60.2044 30 61C30 61.7956 29.6839 62.5587 29.1213 63.1213C28.5587 63.6839 27.7956 64 27 64ZM23 60C22.7348 60 22.4804 60.1054 22.2929 60.2929C22.1054 60.4804 22 60.7348 22 61C22 61.2652 22.1054 61.5196 22.2929 61.7071C22.4804 61.8946 22.7348 62 23 62H27C27.2652 62 27.5196 61.8946 27.7071 61.7071C27.8946 61.5196 28 61.2652 28 61C28 60.7348 27.8946 60.4804 27.7071 60.2929C27.5196 60.1054 27.2652 60 27 60H23Z" fill="#5592BC"/>
<path d="M24 64H14C13.1167 63.9074 12.2794 63.56 11.59 63C10.9025 62.4498 10.0745 62.1034 9.2 62H6V60H9.2C10.4662 60.0884 11.6776 60.5514 12.68 61.33C13.0721 61.6373 13.5205 61.8649 14 62H24V64Z" fill="#5592BC"/>
<path d="M22 35H9.63L11.17 41.46C11.17 41.46 16.16 35 22 35Z" stroke="#5592BC" stroke-width="2" stroke-linejoin="round"/>
</g>
<defs>
<clipPath id="clip0_351_20729">
<rect width="64" height="64" fill="white"/>
</clipPath>
</defs>
</svg>
