<svg width="64" height="64" viewBox="0 0 64 64" fill="none" xmlns="http://www.w3.org/2000/svg">
<g clip-path="url(#clip0_351_20527)">
<path d="M20 64V44C20 43.4696 19.7893 42.9609 19.4142 42.5858C19.0391 42.2107 18.5304 42 18 42H2C1.46957 42 0.960859 42.2107 0.585786 42.5858C0.210714 42.9609 0 43.4696 0 44L0 64H20ZM18 64H2V44H18V64Z" fill="#5592BC"/>
<path d="M42 64V44C42 43.4696 41.7893 42.9609 41.4142 42.5858C41.0391 42.2107 40.5304 42 40 42H24C23.4696 42 22.9609 42.2107 22.5858 42.5858C22.2107 42.9609 22 43.4696 22 44V64H42ZM40 64H24V44H40V64Z" fill="#5592BC"/>
<path d="M64 64V44C64 43.4696 63.7893 42.9609 63.4142 42.5858C63.0391 42.2107 62.5304 42 62 42H46C45.4696 42 44.9609 42.2107 44.5858 42.5858C44.2107 42.9609 44 43.4696 44 44V64H64ZM62 64H46V44H62V64Z" fill="#5592BC"/>
<path d="M2 64V50C2 49.4696 2.21071 48.9609 2.58579 48.5858C2.96086 48.2107 3.46957 48 4 48H16C16.5304 48 17.0391 48.2107 17.4142 48.5858C17.7893 48.9609 18 49.4696 18 50V64H2Z" fill="#87CFFF"/>
<path d="M24 64V50C24 49.4696 24.2107 48.9609 24.5858 48.5858C24.9609 48.2107 25.4696 48 26 48H38C38.5304 48 39.0391 48.2107 39.4142 48.5858C39.7893 48.9609 40 49.4696 40 50V64H24Z" fill="#87CFFF"/>
<path d="M46 64V50C46 49.4696 46.2107 48.9609 46.5858 48.5858C46.9609 48.2107 47.4696 48 48 48H60C60.5304 48 61.0391 48.2107 61.4142 48.5858C61.7893 48.9609 62 49.4696 62 50V64H46Z" fill="#87CFFF"/>
<path d="M16 16V22H48V16H16ZM46 20H18V18H46V20Z" fill="#5592BC"/>
<path d="M22 20H20V36H22V20Z" fill="#5592BC"/>
<path d="M44 20H42V36H44V20Z" fill="#5592BC"/>
<path d="M46 18H18V20H46V18Z" fill="#87CFFF"/>
<path d="M32 10C31.0111 10 30.0444 9.70675 29.2222 9.15735C28.3999 8.60794 27.759 7.82705 27.3806 6.91342C27.0022 5.99979 26.9031 4.99445 27.0961 4.02455C27.289 3.05464 27.7652 2.16373 28.4645 1.46446C29.1637 0.765202 30.0546 0.288998 31.0246 0.096072C31.9945 -0.0968541 32.9998 0.00216261 33.9134 0.380601C34.8271 0.759039 35.6079 1.3999 36.1574 2.22215C36.7068 3.04439 37 4.01109 37 5C37 6.32608 36.4732 7.59785 35.5355 8.53553C34.5979 9.47321 33.3261 10 32 10ZM32 2C31.4067 2 30.8266 2.17595 30.3333 2.50559C29.8399 2.83523 29.4554 3.30377 29.2284 3.85195C29.0013 4.40013 28.9419 5.00333 29.0576 5.58527C29.1734 6.16721 29.4591 6.70176 29.8787 7.12132C30.2982 7.54088 30.8328 7.8266 31.4147 7.94235C31.9967 8.05811 32.5999 7.9987 33.1481 7.77164C33.6962 7.54457 34.1648 7.16006 34.4944 6.66671C34.8241 6.17336 35 5.59334 35 5C35 4.20435 34.6839 3.44129 34.1213 2.87868C33.5587 2.31607 32.7957 2 32 2Z" fill="#5592BC"/>
<path d="M38 10H36.19C35.1168 11.1439 33.6619 11.8554 32.1 12C30.5346 11.8577 29.0757 11.1461 28 10H26C24.89 10 24 9.89 24 11V18H40V11C40 9.89 39.11 10 38 10ZM38 16H26V12H26.74C27.74 12 29.74 14 32.1 14C34.46 14 36.45 12 37.46 12H38V16Z" fill="#5592BC"/>
<path d="M54 36C53.0111 36 52.0444 35.7068 51.2222 35.1574C50.3999 34.6079 49.759 33.8271 49.3806 32.9134C49.0022 31.9998 48.9031 30.9945 49.0961 30.0246C49.289 29.0546 49.7652 28.1637 50.4645 27.4645C51.1637 26.7652 52.0546 26.289 53.0245 26.0961C53.9945 25.9031 54.9998 26.0022 55.9134 26.3806C56.8271 26.759 57.6079 27.3999 58.1574 28.2222C58.7068 29.0444 59 30.0111 59 31C59 32.3261 58.4732 33.5979 57.5355 34.5355C56.5979 35.4732 55.3261 36 54 36ZM54 28C53.4067 28 52.8266 28.1759 52.3333 28.5056C51.8399 28.8352 51.4554 29.3038 51.2284 29.852C51.0013 30.4001 50.9419 31.0033 51.0576 31.5853C51.1734 32.1672 51.4591 32.7018 51.8787 33.1213C52.2982 33.5409 52.8328 33.8266 53.4147 33.9424C53.9967 34.0581 54.5999 33.9987 55.1481 33.7716C55.6962 33.5446 56.1648 33.1601 56.4944 32.6667C56.8241 32.1734 57 31.5933 57 31C57 30.2044 56.6839 29.4413 56.1213 28.8787C55.5587 28.3161 54.7957 28 54 28Z" fill="#5592BC"/>
<path d="M60 36H58.19C57.1168 37.1439 55.6619 37.8554 54.1 38C52.5346 37.8577 51.0757 37.1461 50 36H48C46.89 36 46 35.89 46 37V44H62V37C62 35.89 61.11 36 60 36ZM60 42H48V38H48.74C49.74 38 51.74 40 54.1 40C56.46 40 58.45 38 59.46 38H60V42Z" fill="#5592BC"/>
<path d="M32 36C31.0111 36 30.0444 35.7068 29.2222 35.1574C28.3999 34.6079 27.759 33.8271 27.3806 32.9134C27.0022 31.9998 26.9031 30.9945 27.0961 30.0246C27.289 29.0546 27.7652 28.1637 28.4645 27.4645C29.1637 26.7652 30.0546 26.289 31.0246 26.0961C31.9945 25.9031 32.9998 26.0022 33.9134 26.3806C34.8271 26.759 35.6079 27.3999 36.1574 28.2222C36.7068 29.0444 37 30.0111 37 31C37 32.3261 36.4732 33.5979 35.5355 34.5355C34.5979 35.4732 33.3261 36 32 36ZM32 28C31.4067 28 30.8266 28.1759 30.3333 28.5056C29.8399 28.8352 29.4554 29.3038 29.2284 29.852C29.0013 30.4001 28.9419 31.0033 29.0576 31.5853C29.1734 32.1672 29.4591 32.7018 29.8787 33.1213C30.2982 33.5409 30.8328 33.8266 31.4147 33.9424C31.9967 34.0581 32.5999 33.9987 33.1481 33.7716C33.6962 33.5446 34.1648 33.1601 34.4944 32.6667C34.8241 32.1734 35 31.5933 35 31C35 30.2044 34.6839 29.4413 34.1213 28.8787C33.5587 28.3161 32.7957 28 32 28Z" fill="#5592BC"/>
<path d="M38 36H36.19C35.1168 37.1439 33.6619 37.8554 32.1 38C30.5346 37.8577 29.0757 37.1461 28 36H26C24.89 36 24 35.89 24 37V44H40V37C40 35.89 39.11 36 38 36ZM38 42H26V38H26.74C27.74 38 29.74 40 32.1 40C34.46 40 36.45 38 37.46 38H38V42Z" fill="#5592BC"/>
<path d="M10 36C9.0111 36 8.0444 35.7068 7.22215 35.1574C6.39991 34.6079 5.75904 33.8271 5.3806 32.9134C5.00217 31.9998 4.90315 30.9945 5.09608 30.0246C5.289 29.0546 5.76521 28.1637 6.46447 27.4645C7.16373 26.7652 8.05465 26.289 9.02455 26.0961C9.99446 25.9031 10.9998 26.0022 11.9134 26.3806C12.827 26.759 13.6079 27.3999 14.1573 28.2222C14.7068 29.0444 15 30.0111 15 31C15 32.3261 14.4732 33.5979 13.5355 34.5355C12.5979 35.4732 11.3261 36 10 36ZM10 28C9.40666 28 8.82664 28.1759 8.33329 28.5056C7.83994 28.8352 7.45543 29.3038 7.22836 29.852C7.0013 30.4001 6.94189 31.0033 7.05765 31.5853C7.1734 32.1672 7.45912 32.7018 7.87868 33.1213C8.29824 33.5409 8.83279 33.8266 9.41473 33.9424C9.99667 34.0581 10.5999 33.9987 11.1481 33.7716C11.6962 33.5446 12.1648 33.1601 12.4944 32.6667C12.8241 32.1734 13 31.5933 13 31C13 30.2044 12.6839 29.4413 12.1213 28.8787C11.5587 28.3161 10.7957 28 10 28Z" fill="#5592BC"/>
<path d="M16 36H14.19C13.1168 37.1439 11.6619 37.8554 10.1 38C8.53458 37.8577 7.07574 37.1461 6 36H4C2.89 36 2 35.89 2 37V44H18V37C18 35.89 17.11 36 16 36ZM16 42H4V38H4.74C5.74 38 7.74 40 10.1 40C12.46 40 14.45 38 15.46 38H16V42Z" fill="#5592BC"/>
<path d="M20.75 6.83L16.29 11.29C16.1973 11.3834 16.124 11.4943 16.0742 11.6161C16.0245 11.7379 15.9993 11.8684 16 12V16H18V12.41L22.16 8.24L20.75 6.83Z" fill="#5592BC"/>
<path d="M19.59 10.83C19.4027 11.0162 19.1492 11.1208 18.885 11.1208C18.6208 11.1208 18.3674 11.0162 18.18 10.83C17.9938 10.6426 17.8892 10.3892 17.8892 10.125C17.8892 9.86081 17.9938 9.60736 18.18 9.42L22.42 5.18C22.6074 4.99375 22.8608 4.88921 23.125 4.88921C23.3892 4.88921 23.6427 4.99375 23.83 5.18C24.0163 5.36736 24.1208 5.62081 24.1208 5.885C24.1208 6.14918 24.0163 6.40264 23.83 6.59L19.59 10.83Z" fill="#5592BC"/>
</g>
<defs>
<clipPath id="clip0_351_20527">
<rect width="64" height="64" fill="white"/>
</clipPath>
</defs>
</svg>
