<svg width="404" height="1345" viewBox="0 0 404 1345" fill="none" xmlns="http://www.w3.org/2000/svg">
<path d="M146.5 150L147.313 150.582L147.313 150.582L146.5 150ZM126.453 225.81L125.482 226.052L125.482 226.052L126.453 225.81ZM126.5 226L127.47 225.757L127.47 225.757L126.5 226ZM223.5 307L223.091 307.913L223.091 307.913L223.5 307ZM285 599.5L284.708 598.544L284.708 598.544L285 599.5ZM33.9999 737L34.9033 737.429L34.9033 737.429L33.9999 737ZM10.3447 1342.7C10.8894 1342.61 11.2566 1342.09 11.1649 1341.55C11.0732 1341 10.5574 1340.64 10.0128 1340.73L10.3447 1342.7ZM27.6638 1334.15C27.1932 1334.44 27.0461 1335.05 27.3351 1335.53C27.6242 1336 28.24 1336.14 28.7106 1335.85L27.6638 1334.15ZM43.3564 1322.83C43.706 1322.4 43.6429 1321.77 43.2154 1321.42C42.7879 1321.07 42.1579 1321.14 41.8083 1321.56L43.3564 1322.83ZM52.0354 1305.44C51.7894 1305.93 51.9907 1306.53 52.4852 1306.78C52.9796 1307.02 53.5799 1306.82 53.826 1306.33L52.0354 1305.44ZM61.1423 1288.27C61.315 1287.74 61.0298 1287.18 60.5053 1287.01C59.9807 1286.83 59.4154 1287.12 59.2426 1287.64L61.1423 1288.27ZM64.3274 1269.04C64.206 1269.58 64.5444 1270.12 65.0832 1270.24C65.622 1270.36 66.1571 1270.02 66.2785 1269.48L64.3274 1269.04ZM69.8612 1250.4C69.9455 1249.85 69.5713 1249.34 69.0255 1249.26C68.4797 1249.17 67.9689 1249.55 67.8846 1250.09L69.8612 1250.4ZM70.3267 1230.93C70.2701 1231.48 70.6696 1231.97 71.2189 1232.03C71.7683 1232.08 72.2596 1231.68 72.3162 1231.14L70.3267 1230.93ZM73.9201 1211.8C73.9557 1211.25 73.5378 1210.77 72.9866 1210.73C72.4355 1210.7 71.9598 1211.12 71.9242 1211.67L73.9201 1211.8ZM72.8781 1192.35C72.8585 1192.9 73.29 1193.36 73.842 1193.38C74.3939 1193.4 74.8572 1192.97 74.8769 1192.42L72.8781 1192.35ZM75.349 1173.05C75.357 1172.5 74.9159 1172.05 74.3636 1172.04C73.8114 1172.03 73.3572 1172.47 73.3492 1173.02L75.349 1173.05ZM73.4931 1153.64C73.492 1154.2 73.9388 1154.64 74.4911 1154.65C75.0434 1154.65 75.492 1154.2 75.4931 1153.65L73.4931 1153.64ZM75.4565 1133.54C75.4519 1132.98 75.0005 1132.54 74.4482 1132.55C73.896 1132.55 73.452 1133 73.4565 1133.55L75.4565 1133.54ZM73.1132 1112.94C73.1271 1113.49 73.586 1113.93 74.1381 1113.91C74.6902 1113.9 75.1265 1113.44 75.1126 1112.89L73.1132 1112.94ZM74.4113 1092.25C74.3876 1091.7 73.9211 1091.27 73.3693 1091.3C72.8175 1091.32 72.3894 1091.79 72.4131 1092.34L74.4113 1092.25ZM71.3392 1071.74C71.3731 1072.3 71.8474 1072.72 72.3987 1072.68C72.9499 1072.65 73.3693 1072.17 73.3354 1071.62L71.3392 1071.74ZM71.8678 1051C71.8233 1050.45 71.3409 1050.04 70.7904 1050.09C70.2399 1050.13 69.8298 1050.62 69.8744 1051.17L71.8678 1051ZM68.003 1030.61C68.0587 1031.16 68.5492 1031.56 69.0987 1031.51C69.6482 1031.45 70.0485 1030.96 69.9929 1030.41L68.003 1030.61ZM67.6975 1009.86C67.6305 1009.31 67.1317 1008.92 66.5835 1008.99C66.0353 1009.05 65.6452 1009.55 65.7123 1010.1L67.6975 1009.86ZM62.9941 989.66C63.0727 990.207 63.5796 990.586 64.1263 990.507C64.6729 990.429 65.0524 989.922 64.9738 989.375L62.9941 989.66ZM61.8218 968.993C61.7316 968.448 61.2168 968.079 60.6719 968.169C60.127 968.26 59.7585 968.774 59.8486 969.319L61.8218 968.993ZM56.2654 949C56.367 949.543 56.8894 949.901 57.4322 949.799C57.9751 949.697 58.3329 949.175 58.2313 948.632L56.2654 949ZM54.2211 928.325C54.1088 927.784 53.5794 927.437 53.0387 927.549C52.4979 927.661 52.1506 928.191 52.2628 928.731L54.2211 928.325ZM47.9007 908.622C48.0223 909.161 48.5576 909.499 49.0963 909.378C49.6351 909.256 49.9732 908.721 49.8516 908.182L47.9007 908.622ZM45.1537 888.023C45.0251 887.485 44.4854 887.154 43.9483 887.283C43.4112 887.411 43.08 887.951 43.2086 888.488L45.1537 888.023ZM38.3294 868.423C38.4609 868.959 39.0024 869.288 39.5388 869.156C40.0752 869.024 40.4034 868.483 40.2718 867.947L38.3294 868.423ZM35.4 847.898C35.2721 847.36 34.7329 847.028 34.1956 847.156C33.6583 847.284 33.3264 847.823 33.4543 848.36L35.4 847.898ZM28.9007 828.194C29.0138 828.734 29.5437 829.081 30.0843 828.968C30.6248 828.855 30.9714 828.325 30.8583 827.784L28.9007 828.194ZM27.1876 807.543C27.1074 806.997 26.5994 806.619 26.053 806.699C25.5066 806.779 25.1286 807.287 25.2088 807.834L27.1876 807.543ZM23.2362 787.191C23.2556 787.743 23.7188 788.175 24.2707 788.156C24.8227 788.136 25.2544 787.673 25.2349 787.121L23.2362 787.191ZM26.1625 766.701C26.2371 766.154 25.854 765.65 25.3067 765.575C24.7595 765.501 24.2554 765.884 24.1808 766.431L26.1625 766.701ZM29.0913 746.215C28.9057 746.735 29.1769 747.308 29.697 747.493C30.2172 747.679 30.7893 747.408 30.975 746.888L29.0913 746.215ZM39.5791 727.991C39.834 727.501 39.6435 726.897 39.1536 726.642C38.6636 726.387 38.0598 726.578 37.8049 727.068L39.5791 727.991ZM48.67 708.847C48.3546 709.3 48.4665 709.923 48.9199 710.239C49.3733 710.554 49.9965 710.442 50.3119 709.989L48.67 708.847ZM63.6915 693.951C64.0823 693.561 64.0826 692.927 63.6923 692.537C63.3019 692.146 62.6688 692.146 62.278 692.536L63.6915 693.951ZM78.5367 678.833C78.0882 679.156 77.9859 679.781 78.3081 680.229C78.6304 680.678 79.2552 680.78 79.7038 680.458L78.5367 678.833ZM97.4569 669.258C97.9387 668.988 98.1104 668.378 97.8405 667.896C97.5705 667.414 96.9611 667.243 96.4793 667.513L97.4569 669.258ZM115.286 657.905C114.786 658.139 114.571 658.735 114.806 659.235C115.041 659.735 115.636 659.95 116.136 659.715L115.286 657.905ZM135.44 651.219C135.95 651.008 136.192 650.423 135.981 649.912C135.769 649.402 135.184 649.16 134.674 649.372L135.44 651.219ZM154.321 641.594C153.805 641.79 153.545 642.367 153.741 642.884C153.937 643.4 154.514 643.66 155.031 643.464L154.321 641.594ZM174.789 636.215C175.309 636.03 175.581 635.458 175.396 634.938C175.21 634.418 174.639 634.146 174.118 634.331L174.789 636.215ZM194.1 627.398C193.577 627.575 193.297 628.143 193.474 628.666C193.652 629.189 194.219 629.469 194.742 629.292L194.1 627.398ZM214.733 622.637C215.258 622.465 215.544 621.901 215.372 621.376C215.2 620.851 214.636 620.565 214.111 620.736L214.733 622.637ZM234.296 614.223C233.769 614.391 233.479 614.953 233.646 615.48C233.814 616.006 234.376 616.297 234.903 616.129L234.296 614.223ZM254.949 609.812C255.477 609.648 255.771 609.087 255.606 608.56C255.442 608.032 254.881 607.738 254.354 607.903L254.949 609.812ZM274.497 601.669C273.969 601.831 273.672 602.391 273.835 602.919C273.997 603.447 274.556 603.743 275.084 603.581L274.497 601.669ZM294.243 597.343C294.757 597.142 295.011 596.563 294.811 596.048C294.61 595.534 294.03 595.279 293.515 595.48L294.243 597.343ZM310.404 587.517C309.921 587.785 309.745 588.393 310.013 588.876C310.28 589.36 310.888 589.535 311.372 589.268L310.404 587.517ZM327.375 579.171C327.825 578.851 327.931 578.226 327.611 577.776C327.291 577.326 326.667 577.22 326.216 577.54L327.375 579.171ZM340.907 565.947C340.49 566.31 340.447 566.941 340.81 567.358C341.172 567.774 341.804 567.818 342.22 567.455L340.907 565.947ZM355.893 554.401C356.275 554.002 356.262 553.369 355.863 552.987C355.464 552.605 354.831 552.619 354.449 553.018L355.893 554.401ZM366.795 538.939C366.45 539.37 366.519 540 366.949 540.345C367.38 540.691 368.01 540.622 368.355 540.191L366.795 538.939ZM379.511 524.928C379.816 524.467 379.69 523.847 379.229 523.542C378.769 523.237 378.148 523.363 377.843 523.823L379.511 524.928ZM387.383 507.724C387.127 508.213 387.316 508.818 387.806 509.073C388.295 509.329 388.899 509.14 389.155 508.651L387.383 507.724ZM396.863 491.363C397.052 490.845 396.785 490.27 396.267 490.081C395.748 489.891 395.174 490.158 394.984 490.677L396.863 491.363ZM399.758 472.703C399.674 473.249 400.049 473.76 400.595 473.843C401.141 473.927 401.651 473.552 401.735 473.007L399.758 472.703ZM402.004 452.892C401.951 452.342 401.463 451.939 400.913 451.991C400.363 452.044 399.96 452.532 400.013 453.082L402.004 452.892ZM395.936 432.749C396.101 433.276 396.663 433.569 397.189 433.404C397.716 433.238 398.01 432.677 397.844 432.15L395.936 432.749ZM389.391 412.742C389.118 412.261 388.508 412.092 388.028 412.365C387.547 412.637 387.378 413.247 387.65 413.728L389.391 412.742ZM375.725 396.701C376.081 397.123 376.712 397.177 377.134 396.821C377.556 396.465 377.61 395.834 377.254 395.412L375.725 396.701ZM362.453 380.339C362.04 379.973 361.408 380.011 361.041 380.424C360.675 380.838 360.713 381.47 361.126 381.836L362.453 380.339ZM344.743 368.899C345.194 369.219 345.818 369.113 346.137 368.662C346.457 368.212 346.351 367.588 345.901 367.268L344.743 368.899ZM328.226 355.788C327.752 355.505 327.138 355.659 326.854 356.133C326.57 356.607 326.725 357.221 327.199 357.505L328.226 355.788ZM308.914 347.284C309.403 347.541 310.007 347.352 310.264 346.863C310.521 346.375 310.333 345.77 309.844 345.513L308.914 347.284ZM291.028 336.107C290.53 335.869 289.933 336.08 289.695 336.578C289.456 337.076 289.667 337.673 290.165 337.911L291.028 336.107ZM271.125 329.1C271.628 329.327 272.22 329.102 272.447 328.599C272.674 328.095 272.449 327.503 271.946 327.276L271.125 329.1ZM252.732 318.768C252.226 318.547 251.636 318.777 251.415 319.283C251.193 319.789 251.423 320.379 251.929 320.601L252.732 318.768ZM232.689 312.173C233.195 312.396 233.785 312.167 234.008 311.661C234.23 311.156 234.001 310.566 233.496 310.343L232.689 312.173ZM214.107 301.542C213.609 301.303 213.012 301.512 212.773 302.01C212.534 302.508 212.743 303.105 213.241 303.345L214.107 301.542ZM193.995 293.381C194.477 293.65 195.087 293.478 195.356 292.996C195.626 292.514 195.453 291.904 194.971 291.635L193.995 293.381ZM176.576 280.434C176.117 280.128 175.496 280.252 175.19 280.712C174.884 281.172 175.008 281.793 175.468 282.099L176.576 280.434ZM158.013 269.212C158.439 269.564 159.069 269.503 159.421 269.077C159.772 268.651 159.712 268.021 159.286 267.67L158.013 269.212ZM143.704 252.905C143.334 252.495 142.702 252.462 142.291 252.831C141.881 253.201 141.848 253.833 142.217 254.244L143.704 252.905ZM129.542 236.503C129.797 236.993 130.401 237.183 130.891 236.928C131.381 236.673 131.571 236.07 131.316 235.58L129.542 236.503ZM127.458 225.71C127.324 225.174 126.781 224.848 126.246 224.982C125.71 225.116 125.384 225.659 125.518 226.195L127.458 225.71ZM125.494 226.1C125.628 226.635 126.171 226.961 126.707 226.827C127.243 226.693 127.569 226.15 127.435 225.615L125.494 226.1ZM125.135 215.641C125.031 215.099 124.508 214.743 123.965 214.846C123.423 214.95 123.067 215.474 123.17 216.016L125.135 215.641ZM122.804 195.293C122.707 195.836 123.069 196.356 123.613 196.453C124.156 196.551 124.676 196.189 124.773 195.645L122.804 195.293ZM131.333 176.594C131.574 176.097 131.367 175.499 130.87 175.257C130.374 175.016 129.775 175.223 129.534 175.72L131.333 176.594ZM139.845 157.907C139.541 158.369 139.669 158.989 140.13 159.292C140.592 159.596 141.212 159.468 141.516 159.007L139.845 157.907ZM154.418 143.07C154.821 142.692 154.841 142.06 154.463 141.657C154.085 141.254 153.453 141.234 153.05 141.612L154.418 143.07ZM169.216 127.821C168.783 128.165 168.711 128.794 169.055 129.226C169.399 129.659 170.028 129.73 170.46 129.387L169.216 127.821ZM187.336 116.615C187.784 116.291 187.884 115.666 187.56 115.218C187.236 114.771 186.611 114.671 186.163 114.995L187.336 116.615ZM203.531 102.877C203.073 103.185 202.952 103.807 203.261 104.265C203.569 104.723 204.191 104.844 204.649 104.536L203.531 102.877ZM222.384 92.962C222.85 92.6666 222.989 92.0489 222.694 91.5822C222.399 91.1156 221.781 90.9767 221.314 91.272L222.384 92.962ZM239.387 80.1561C238.913 80.4396 238.759 81.0536 239.042 81.5276C239.326 82.0016 239.94 82.156 240.414 81.8725L239.387 80.1561ZM258.682 71.2311C259.162 70.9585 259.331 70.3481 259.058 69.8678C258.786 69.3875 258.175 69.2191 257.695 69.4917L258.682 71.2311ZM276.229 59.2333C275.743 59.4957 275.562 60.1024 275.825 60.5884C276.087 61.0743 276.694 61.2556 277.18 60.9932L276.229 59.2333ZM295.917 51.1174C296.408 50.8647 296.601 50.2617 296.349 49.7707C296.096 49.2796 295.493 49.0863 295.002 49.3391L295.917 51.1174ZM313.94 39.8183C313.444 40.0618 313.24 40.6611 313.483 41.1568C313.727 41.6525 314.326 41.857 314.822 41.6135L313.94 39.8183ZM333.897 32.4552C334.397 32.2206 334.612 31.6251 334.378 31.1251C334.143 30.6252 333.548 30.4101 333.048 30.6447L333.897 32.4552ZM352.309 21.8058C351.805 22.032 351.58 22.6237 351.806 23.1276C352.032 23.6315 352.624 23.8567 353.127 23.6306L352.309 21.8058ZM372.544 15.1092C373.051 14.8914 373.286 14.3034 373.068 13.7959C372.85 13.2883 372.262 13.0535 371.755 13.2714L372.544 15.1092ZM391.26 5.08092C390.749 5.29077 390.505 5.87502 390.715 6.38589C390.925 6.89675 391.509 7.14077 392.02 6.93092L391.26 5.08092ZM0.499786 1343.5C3.93102 1343.5 7.21061 1343.23 10.3447 1342.7L10.0128 1340.73C6.99333 1341.24 3.82496 1341.5 0.499786 1341.5V1343.5ZM28.7106 1335.85C34.2231 1332.47 39.079 1328.06 43.3564 1322.83L41.8083 1321.56C37.6521 1326.64 32.9604 1330.9 27.6638 1334.15L28.7106 1335.85ZM53.826 1306.33C56.6091 1300.73 59.0321 1294.68 61.1423 1288.27L59.2426 1287.64C57.157 1293.98 54.7689 1299.94 52.0354 1305.44L53.826 1306.33ZM66.2785 1269.48C67.6735 1263.29 68.857 1256.9 69.8612 1250.4L67.8846 1250.09C66.8863 1256.56 65.711 1262.9 64.3274 1269.04L66.2785 1269.48ZM72.3162 1231.14C72.9795 1224.7 73.5045 1218.23 73.9201 1211.8L71.9242 1211.67C71.5101 1218.08 70.9871 1224.52 70.3267 1230.93L72.3162 1231.14ZM74.8769 1192.42C75.1117 1185.81 75.2579 1179.33 75.349 1173.05L73.3492 1173.02C73.2583 1179.29 73.1123 1185.76 72.8781 1192.35L74.8769 1192.42ZM75.4931 1153.65C75.4995 1150.33 75.4995 1147.11 75.4995 1144H73.4995C73.4995 1147.11 73.4995 1150.33 73.4931 1153.64L75.4931 1153.65ZM75.4995 1144C75.4995 1140.48 75.485 1136.99 75.4565 1133.54L73.4565 1133.55C73.485 1137 73.4995 1140.48 73.4995 1144H75.4995ZM75.1126 1112.89C74.9357 1105.86 74.7004 1098.99 74.4113 1092.25L72.4131 1092.34C72.7017 1099.06 72.9366 1105.93 73.1132 1112.94L75.1126 1112.89ZM73.3354 1071.62C72.9025 1064.59 72.4113 1057.72 71.8678 1051L69.8744 1051.17C70.4168 1057.86 70.9071 1064.72 71.3392 1071.74L73.3354 1071.62ZM69.9929 1030.41C69.2807 1023.38 68.5128 1016.53 67.6975 1009.86L65.7123 1010.1C66.5259 1016.76 67.2922 1023.59 68.003 1030.61L69.9929 1030.41ZM64.9738 989.375C63.9673 982.375 62.9129 975.585 61.8218 968.993L59.8486 969.319C60.9375 975.898 61.9898 982.674 62.9941 989.66L64.9738 989.375ZM58.2313 948.632C56.9209 941.628 55.5788 934.864 54.2211 928.325L52.2628 928.731C53.6181 935.259 54.9576 942.01 56.2654 949L58.2313 948.632ZM49.8516 908.182C48.2749 901.196 46.7006 894.484 45.1537 888.023L43.2086 888.488C44.7541 894.944 46.3263 901.647 47.9007 908.622L49.8516 908.182ZM40.2718 867.947C38.5599 860.967 36.923 854.298 35.4 847.898L33.4543 848.36C34.9793 854.769 36.6179 861.445 38.3294 868.423L40.2718 867.947ZM30.8583 827.784C29.3819 820.727 28.1356 814.003 27.1876 807.543L25.2088 807.834C26.1642 814.344 27.4186 821.109 28.9007 828.194L30.8583 827.784ZM25.2349 787.121C24.9876 780.089 25.2598 773.32 26.1625 766.701L24.1808 766.431C23.2607 773.179 22.9854 780.062 23.2362 787.191L25.2349 787.121ZM30.975 746.888C32.1006 743.733 33.4055 740.585 34.9033 737.429L33.0964 736.571C31.5705 739.787 30.2399 742.997 29.0913 746.215L30.975 746.888ZM34.9033 737.429C36.4537 734.162 38.0028 731.021 39.5791 727.991L37.8049 727.068C36.2151 730.123 34.6551 733.287 33.0964 736.571L34.9033 737.429ZM50.3119 709.989C54.26 704.313 58.6231 699.014 63.6915 693.951L62.278 692.536C57.1197 697.689 52.6812 703.08 48.67 708.847L50.3119 709.989ZM79.7038 680.458C84.9546 676.685 90.8233 672.975 97.4569 669.258L96.4793 667.513C89.7896 671.261 83.8564 675.011 78.5367 678.833L79.7038 680.458ZM116.136 659.715C122.068 656.927 128.483 654.105 135.44 651.219L134.674 649.372C127.693 652.267 121.25 655.102 115.286 657.905L116.136 659.715ZM155.031 643.464C161.246 641.105 167.822 638.694 174.789 636.215L174.118 634.331C167.14 636.813 160.551 639.23 154.321 641.594L155.031 643.464ZM194.742 629.292C201.116 627.13 207.774 624.914 214.733 622.637L214.111 620.736C207.146 623.016 200.481 625.234 194.1 627.398L194.742 629.292ZM234.903 616.129C241.351 614.075 248.03 611.971 254.949 609.812L254.354 607.903C247.431 610.063 240.748 612.168 234.296 614.223L234.903 616.129ZM275.084 603.581C278.435 602.552 281.837 601.511 285.291 600.456L284.708 598.544C281.252 599.598 277.849 600.64 274.497 601.669L275.084 603.581ZM285.291 600.456C288.299 599.539 291.284 598.498 294.243 597.343L293.515 595.48C290.602 596.617 287.665 597.641 284.708 598.544L285.291 600.456ZM311.372 589.268C316.851 586.238 322.197 582.85 327.375 579.171L326.216 577.54C321.096 581.179 315.813 584.526 310.404 587.517L311.372 589.268ZM342.22 567.455C346.985 563.305 351.554 558.933 355.893 554.401L354.449 553.018C350.15 557.507 345.625 561.838 340.907 565.947L342.22 567.455ZM368.355 540.191C372.372 535.183 376.103 530.072 379.511 524.928L377.843 523.823C374.47 528.916 370.775 533.978 366.795 538.939L368.355 540.191ZM389.155 508.651C392.215 502.799 394.804 497 396.863 491.363L394.984 490.677C392.958 496.223 390.406 501.941 387.383 507.724L389.155 508.651ZM401.735 473.007C402.239 469.717 402.5 466.539 402.5 463.5H400.5C400.5 466.425 400.249 469.502 399.758 472.703L401.735 473.007ZM402.5 463.5C402.5 459.874 402.332 456.34 402.004 452.892L400.013 453.082C400.335 456.465 400.5 459.936 400.5 463.5H402.5ZM397.844 432.15C395.697 425.303 392.85 418.848 389.391 412.742L387.65 413.728C391.043 419.716 393.833 426.042 395.936 432.749L397.844 432.15ZM377.254 395.412C372.786 390.11 367.824 385.1 362.453 380.339L361.126 381.836C366.434 386.54 371.326 391.482 375.725 396.701L377.254 395.412ZM345.901 367.268C340.273 363.274 334.36 359.458 328.226 355.788L327.199 357.505C333.295 361.152 339.164 364.939 344.743 368.899L345.901 367.268ZM309.844 345.513C303.698 342.284 297.408 339.158 291.028 336.107L290.165 337.911C296.527 340.954 302.794 344.069 308.914 347.284L309.844 345.513ZM271.946 327.276C265.561 324.402 259.139 321.574 252.732 318.768L251.929 320.601C258.335 323.406 264.749 326.23 271.125 329.1L271.946 327.276ZM233.496 310.343C230.281 308.926 227.083 307.509 223.909 306.087L223.091 307.913C226.271 309.336 229.472 310.756 232.689 312.173L233.496 310.343ZM223.909 306.087C220.539 304.578 217.273 303.062 214.107 301.542L213.241 303.345C216.423 304.873 219.706 306.396 223.091 307.913L223.909 306.087ZM194.971 291.635C188.279 287.894 182.159 284.15 176.576 280.434L175.468 282.099C181.096 285.845 187.26 289.616 193.995 293.381L194.971 291.635ZM159.286 267.67C153.14 262.599 147.977 257.65 143.704 252.905L142.217 254.244C146.564 259.07 151.799 264.086 158.013 269.212L159.286 267.67ZM131.316 235.58C129.478 232.046 128.22 228.754 127.47 225.757L125.53 226.243C126.323 229.414 127.643 232.852 129.542 236.503L131.316 235.58ZM127.47 225.757L127.458 225.71L125.518 226.195L125.53 226.243L127.47 225.757ZM127.435 225.615L127.423 225.567L125.482 226.052L125.494 226.1L127.435 225.615ZM127.423 225.567C126.57 222.156 125.757 218.905 125.135 215.641L123.17 216.016C123.805 219.345 124.632 222.651 125.482 226.052L127.423 225.567ZM124.773 195.645C125.768 190.092 127.789 183.89 131.333 176.594L129.534 175.72C125.925 183.149 123.837 189.526 122.804 195.293L124.773 195.645ZM141.516 159.007C143.281 156.325 145.209 153.52 147.313 150.582L145.687 149.418C143.569 152.375 141.626 155.201 139.845 157.907L141.516 159.007ZM147.313 150.582C148.404 149.059 150.744 146.516 154.418 143.07L153.05 141.612C149.361 145.072 146.898 147.726 145.687 149.418L147.313 150.582ZM170.46 129.387C175.327 125.518 180.948 121.241 187.336 116.615L186.163 114.995C179.752 119.637 174.107 123.933 169.216 127.821L170.46 129.387ZM204.649 104.536C210.157 100.825 216.067 96.9598 222.384 92.962L221.314 91.272C214.981 95.2799 209.055 99.1556 203.531 102.877L204.649 104.536ZM240.414 81.8725C246.223 78.3975 252.312 74.8463 258.682 71.2311L257.695 69.4917C251.312 73.1143 245.21 76.6733 239.387 80.1561L240.414 81.8725ZM277.18 60.9932C283.208 57.7385 289.453 54.4438 295.917 51.1174L295.002 49.3391C288.526 52.6715 282.269 55.9723 276.229 59.2333L277.18 60.9932ZM314.822 41.6135C321.002 38.5779 327.36 35.5232 333.897 32.4552L333.048 30.6447C326.5 33.7177 320.131 36.7776 313.94 39.8183L314.822 41.6135ZM353.127 23.6306C359.447 20.7948 365.919 17.9528 372.544 15.1092L371.755 13.2714C365.12 16.1193 358.638 18.9656 352.309 21.8058L353.127 23.6306ZM392.02 6.93092C395.27 5.59578 398.554 4.26128 401.873 2.9279L401.127 1.0721C397.804 2.4074 394.515 3.74383 391.26 5.08092L392.02 6.93092ZM146.5 150L148.126 151.164L148.126 151.164L146.5 150ZM126.453 225.81L124.512 226.295L124.512 226.295L126.453 225.81ZM126.5 226L128.44 225.515L128.44 225.515L126.5 226ZM223.5 307L222.683 308.825L222.683 308.825L223.5 307ZM285 599.5L284.416 597.587L284.416 597.587L285 599.5ZM33.9999 737L35.8067 737.857L35.8067 737.857L33.9999 737ZM10.5107 1343.69C11.5999 1343.5 12.3344 1342.47 12.151 1341.38C11.9677 1340.29 10.9361 1339.56 9.84685 1339.74L10.5107 1343.69ZM27.1404 1333.3C26.1992 1333.88 25.9049 1335.11 26.4831 1336.05C27.0612 1336.99 28.2928 1337.28 29.234 1336.71L27.1404 1333.3ZM44.1305 1323.46C44.8298 1322.61 44.7035 1321.35 43.8485 1320.65C42.9935 1319.95 41.7335 1320.07 41.0342 1320.93L44.1305 1323.46ZM51.1402 1304.99C50.6481 1305.98 51.0508 1307.18 52.0396 1307.67C53.0285 1308.16 54.2291 1307.76 54.7212 1306.77L51.1402 1304.99ZM62.0921 1288.58C62.4376 1287.53 61.8672 1286.4 60.8181 1286.06C59.7689 1285.71 58.6383 1286.28 58.2928 1287.33L62.0921 1288.58ZM63.3518 1268.82C63.1091 1269.9 63.7859 1270.97 64.8635 1271.21C65.941 1271.46 67.0113 1270.78 67.254 1269.7L63.3518 1268.82ZM70.8495 1250.55C71.018 1249.46 70.2697 1248.44 69.1781 1248.27C68.0865 1248.1 67.0649 1248.85 66.8963 1249.94L70.8495 1250.55ZM69.332 1230.83C69.2188 1231.93 70.0177 1232.91 71.1164 1233.02C72.2152 1233.14 73.1977 1232.34 73.3109 1231.24L69.332 1230.83ZM74.918 1211.86C74.9892 1210.76 74.1534 1209.81 73.0511 1209.74C71.9488 1209.67 70.9975 1210.5 70.9263 1211.6L74.918 1211.86ZM71.8787 1192.31C71.8395 1193.42 72.7026 1194.34 73.8064 1194.38C74.9103 1194.42 75.837 1193.56 75.8762 1192.45L71.8787 1192.31ZM76.3489 1173.07C76.3649 1171.96 75.4826 1171.05 74.3781 1171.04C73.2737 1171.02 72.3654 1171.9 72.3493 1173.01L76.3489 1173.07ZM72.4931 1153.64C72.4909 1154.75 73.3846 1155.64 74.4892 1155.65C75.5937 1155.65 76.4909 1154.75 76.4931 1153.65L72.4931 1153.64ZM76.4564 1133.53C76.4473 1132.42 75.5445 1131.54 74.44 1131.55C73.3354 1131.55 72.4474 1132.46 72.4566 1133.56L76.4564 1133.53ZM72.1136 1112.97C72.1414 1114.07 73.059 1114.94 74.1633 1114.91C75.2675 1114.89 76.1401 1113.97 76.1123 1112.86L72.1136 1112.97ZM75.4104 1092.21C75.363 1091.11 74.43 1090.25 73.3264 1090.3C72.2229 1090.34 71.3667 1091.28 71.414 1092.38L75.4104 1092.21ZM70.341 1071.81C70.4089 1072.91 71.3576 1073.75 72.4601 1073.68C73.5626 1073.61 74.4013 1072.66 74.3335 1071.56L70.341 1071.81ZM72.8646 1050.92C72.7754 1049.82 71.8106 1049 70.7097 1049.09C69.6087 1049.18 68.7885 1050.15 68.8776 1051.25L72.8646 1050.92ZM67.0081 1030.71C67.1194 1031.81 68.1005 1032.61 69.1994 1032.5C70.2984 1032.39 71.099 1031.41 70.9878 1030.31L67.0081 1030.71ZM68.6901 1009.74C68.5561 1008.64 67.5586 1007.86 66.4622 1007.99C65.3658 1008.13 64.5856 1009.13 64.7197 1010.22L68.6901 1009.74ZM62.0043 989.802C62.1615 990.896 63.1753 991.654 64.2686 991.497C65.3619 991.34 66.1208 990.326 65.9636 989.233L62.0043 989.802ZM62.8084 968.829C62.628 967.74 61.5984 967.002 60.5086 967.183C59.4189 967.363 58.6817 968.393 58.8621 969.483L62.8084 968.829ZM55.2825 949.184C55.4856 950.27 56.5304 950.985 57.6161 950.782C58.7019 950.579 59.4174 949.534 59.2142 948.448L55.2825 949.184ZM55.2002 928.122C54.9757 927.04 53.9169 926.345 52.8354 926.57C51.7539 926.794 51.0592 927.853 51.2837 928.935L55.2002 928.122ZM46.9253 908.842C47.1684 909.92 48.239 910.596 49.3165 910.353C50.394 910.11 51.0703 909.039 50.8271 907.962L46.9253 908.842ZM46.1262 887.79C45.869 886.715 44.7897 886.053 43.7155 886.31C42.6413 886.567 41.9789 887.647 42.2361 888.721L46.1262 887.79ZM37.3582 868.661C37.6213 869.734 38.7042 870.39 39.777 870.127C40.8498 869.864 41.5061 868.781 41.243 867.708L37.3582 868.661ZM36.3728 847.666C36.1171 846.591 35.0387 845.928 33.9641 846.183C32.8896 846.439 32.2258 847.517 32.4815 848.592L36.3728 847.666ZM27.9219 828.398C28.148 829.48 29.2079 830.173 30.289 829.946C31.3702 829.72 32.0633 828.66 31.8371 827.579L27.9219 828.398ZM28.177 807.398C28.0166 806.305 27.0007 805.549 25.9078 805.71C24.8149 805.87 24.059 806.886 24.2194 807.979L28.177 807.398ZM22.2368 787.227C22.2756 788.33 23.202 789.194 24.3059 789.155C25.4097 789.116 26.2731 788.19 26.2343 787.086L22.2368 787.227ZM27.1533 766.836C27.3025 765.742 26.5363 764.734 25.4419 764.585C24.3474 764.435 23.3392 765.202 23.19 766.296L27.1533 766.836ZM28.1495 745.879C27.7782 746.92 28.3206 748.064 29.3609 748.435C30.4012 748.806 31.5455 748.264 31.9168 747.224L28.1495 745.879ZM40.4663 728.452C40.9761 727.472 40.595 726.265 39.6151 725.755C38.6352 725.245 37.4276 725.626 36.9178 726.606L40.4663 728.452ZM47.8491 708.276C47.2183 709.182 47.4421 710.429 48.3489 711.06C49.2557 711.69 50.5021 711.466 51.1328 710.56L47.8491 708.276ZM64.3983 694.658C65.1797 693.878 65.1804 692.611 64.3997 691.83C63.6191 691.049 62.3527 691.048 61.5713 691.829L64.3983 694.658ZM77.9532 678.021C77.0562 678.666 76.8515 679.916 77.496 680.813C78.1406 681.71 79.3902 681.914 80.2873 681.27L77.9532 678.021ZM97.9457 670.13C98.9093 669.59 99.2528 668.371 98.7128 667.407C98.1729 666.444 96.954 666.1 95.9904 666.64L97.9457 670.13ZM114.86 656.999C113.861 657.469 113.431 658.66 113.901 659.66C114.371 660.66 115.562 661.089 116.562 660.62L114.86 656.999ZM135.823 652.143C136.844 651.72 137.328 650.55 136.904 649.529C136.481 648.509 135.311 648.025 134.291 648.448L135.823 652.143ZM153.966 640.659C152.933 641.051 152.414 642.206 152.806 643.239C153.198 644.271 154.353 644.791 155.385 644.399L153.966 640.659ZM175.124 637.158C176.164 636.787 176.708 635.644 176.338 634.603C175.967 633.562 174.824 633.019 173.783 633.389L175.124 637.158ZM193.779 626.451C192.733 626.806 192.172 627.941 192.527 628.987C192.882 630.033 194.018 630.594 195.064 630.239L193.779 626.451ZM215.044 623.588C216.094 623.244 216.666 622.115 216.322 621.065C215.979 620.015 214.849 619.442 213.8 619.786L215.044 623.588ZM233.992 613.271C232.94 613.606 232.358 614.731 232.693 615.783C233.029 616.836 234.154 617.417 235.206 617.082L233.992 613.271ZM255.247 610.767C256.302 610.438 256.89 609.316 256.561 608.262C256.232 607.207 255.11 606.619 254.056 606.948L255.247 610.767ZM274.203 600.713C273.147 601.038 272.554 602.156 272.879 603.212C273.203 604.268 274.322 604.861 275.378 604.537L274.203 600.713ZM294.606 598.275C295.635 597.873 296.144 596.713 295.742 595.685C295.34 594.656 294.181 594.147 293.152 594.549L294.606 598.275ZM309.92 586.642C308.953 587.177 308.603 588.394 309.138 589.36C309.672 590.327 310.889 590.677 311.856 590.143L309.92 586.642ZM327.954 579.986C328.855 579.346 329.066 578.097 328.426 577.197C327.786 576.297 326.538 576.085 325.637 576.725L327.954 579.986ZM340.25 565.193C339.417 565.918 339.33 567.182 340.056 568.015C340.781 568.848 342.044 568.935 342.877 568.209L340.25 565.193ZM356.616 555.093C357.38 554.295 357.352 553.029 356.554 552.265C355.757 551.501 354.491 551.529 353.727 552.326L356.616 555.093ZM366.015 538.314C365.324 539.175 365.462 540.434 366.324 541.125C367.185 541.816 368.444 541.678 369.135 540.817L366.015 538.314ZM380.344 525.48C380.954 524.559 380.702 523.318 379.781 522.708C378.86 522.098 377.619 522.35 377.009 523.271L380.344 525.48ZM386.497 507.261C385.985 508.239 386.363 509.448 387.342 509.96C388.321 510.471 389.53 510.093 390.041 509.114L386.497 507.261ZM397.802 491.706C398.181 490.669 397.647 489.521 396.61 489.142C395.572 488.763 394.424 489.296 394.045 490.334L397.802 491.706ZM398.769 472.552C398.602 473.644 399.352 474.665 400.443 474.832C401.535 474.999 402.556 474.25 402.723 473.158L398.769 472.552ZM402.999 452.797C402.894 451.698 401.918 450.891 400.818 450.996C399.719 451.101 398.912 452.077 399.017 453.177L402.999 452.797ZM394.982 433.048C395.312 434.102 396.435 434.688 397.489 434.358C398.543 434.027 399.129 432.905 398.799 431.851L394.982 433.048ZM390.261 412.249C389.716 411.288 388.496 410.95 387.535 411.495C386.574 412.039 386.236 413.26 386.78 414.221L390.261 412.249ZM374.96 397.345C375.672 398.19 376.934 398.297 377.779 397.585C378.623 396.874 378.731 395.612 378.019 394.767L374.96 397.345ZM363.116 379.591C362.29 378.858 361.026 378.934 360.293 379.761C359.56 380.588 359.636 381.852 360.463 382.584L363.116 379.591ZM344.164 369.715C345.065 370.354 346.314 370.142 346.953 369.241C347.592 368.34 347.38 367.092 346.48 366.453L344.164 369.715ZM328.739 354.93C327.791 354.363 326.563 354.672 325.996 355.62C325.429 356.568 325.738 357.796 326.685 358.363L328.739 354.93ZM308.449 348.169C309.427 348.683 310.636 348.306 311.15 347.329C311.663 346.351 311.287 345.142 310.309 344.628L308.449 348.169ZM291.46 335.205C290.463 334.728 289.269 335.15 288.793 336.146C288.316 337.143 288.738 338.337 289.734 338.814L291.46 335.205ZM270.714 330.012C271.722 330.465 272.906 330.017 273.359 329.009C273.812 328.002 273.364 326.818 272.356 326.365L270.714 330.012ZM253.133 317.852C252.121 317.409 250.942 317.87 250.499 318.882C250.055 319.894 250.516 321.073 251.528 321.517L253.133 317.852ZM232.286 313.088C233.297 313.534 234.477 313.075 234.923 312.064C235.368 311.054 234.91 309.873 233.899 309.428L232.286 313.088ZM214.54 300.64C213.545 300.162 212.35 300.581 211.872 301.577C211.393 302.573 211.813 303.768 212.808 304.246L214.54 300.64ZM193.507 294.253C194.472 294.792 195.69 294.448 196.229 293.484C196.768 292.519 196.423 291.301 195.459 290.762L193.507 294.253ZM177.13 279.602C176.211 278.989 174.969 279.239 174.357 280.158C173.745 281.077 173.994 282.319 174.914 282.931L177.13 279.602ZM157.377 269.984C158.229 270.687 159.489 270.566 160.192 269.714C160.895 268.862 160.774 267.601 159.922 266.898L157.377 269.984ZM144.447 252.236C143.707 251.415 142.443 251.349 141.622 252.088C140.801 252.828 140.735 254.092 141.474 254.913L144.447 252.236ZM128.655 236.964C129.165 237.944 130.372 238.325 131.352 237.815C132.332 237.306 132.713 236.098 132.203 235.118L128.655 236.964ZM128.429 225.467C128.161 224.396 127.075 223.744 126.003 224.012C124.932 224.28 124.28 225.366 124.548 226.437L128.429 225.467ZM124.524 226.342C124.792 227.414 125.878 228.065 126.95 227.797C128.021 227.53 128.673 226.444 128.405 225.372L124.524 226.342ZM126.117 215.454C125.91 214.369 124.863 213.657 123.778 213.864C122.693 214.071 121.981 215.118 122.188 216.203L126.117 215.454ZM121.82 195.116C121.625 196.204 122.349 197.243 123.436 197.438C124.524 197.632 125.563 196.909 125.757 195.822L121.82 195.116ZM132.233 177.031C132.715 176.037 132.301 174.841 131.307 174.358C130.314 173.875 129.117 174.289 128.635 175.283L132.233 177.031ZM139.01 157.357C138.402 158.28 138.658 159.52 139.581 160.128C140.503 160.735 141.743 160.479 142.351 159.557L139.01 157.357ZM155.102 143.8C155.908 143.044 155.948 141.778 155.193 140.973C154.437 140.167 153.171 140.127 152.366 140.882L155.102 143.8ZM168.593 127.038C167.729 127.726 167.585 128.984 168.272 129.848C168.96 130.713 170.218 130.857 171.082 130.17L168.593 127.038ZM187.923 117.425C188.817 116.777 189.018 115.526 188.37 114.632C187.722 113.737 186.471 113.537 185.577 114.185L187.923 117.425ZM202.973 102.048C202.057 102.665 201.814 103.908 202.431 104.824C203.048 105.74 204.291 105.982 205.207 105.365L202.973 102.048ZM222.918 93.807C223.852 93.2163 224.13 91.9808 223.539 91.0474C222.948 90.1141 221.713 89.8363 220.779 90.427L222.918 93.807ZM238.874 79.2979C237.926 79.8649 237.617 81.093 238.184 82.0409C238.751 82.9889 239.979 83.2977 240.927 82.7307L238.874 79.2979ZM259.176 72.1008C260.136 71.5556 260.473 70.3349 259.928 69.3742C259.383 68.4136 258.162 68.0768 257.201 68.622L259.176 72.1008ZM275.754 58.3534C274.782 58.8782 274.42 60.0915 274.945 61.0635C275.469 62.0354 276.683 62.3979 277.655 61.8731L275.754 58.3534ZM296.375 52.0066C297.357 51.5012 297.743 50.2953 297.238 49.3131C296.732 48.3309 295.527 47.9445 294.544 48.4499L296.375 52.0066ZM313.499 38.9208C312.508 39.4077 312.099 40.6062 312.586 41.5976C313.073 42.5891 314.271 42.998 315.263 42.511L313.499 38.9208ZM334.322 33.3605C335.322 32.8912 335.752 31.7002 335.283 30.7003C334.814 29.7004 333.623 29.2702 332.623 29.7394L334.322 33.3605ZM351.899 20.8935C350.892 21.3457 350.441 22.5292 350.893 23.537C351.346 24.5448 352.529 24.9951 353.537 24.5429L351.899 20.8935ZM372.938 16.0281C373.953 15.5925 374.423 14.4164 373.987 13.4014C373.551 12.3864 372.375 11.9168 371.36 12.3524L372.938 16.0281ZM390.88 4.15592C389.858 4.57562 389.37 5.74412 389.79 6.76585C390.21 7.78758 391.378 8.27562 392.4 7.85592L390.88 4.15592ZM0.499786 1344.5C3.98405 1344.5 7.31924 1344.22 10.5107 1343.69L9.84685 1339.74C6.8847 1340.24 3.77193 1340.5 0.499786 1340.5V1344.5ZM29.234 1336.71C34.8544 1333.25 39.7925 1328.77 44.1305 1323.46L41.0342 1320.93C36.9387 1325.94 32.3291 1330.11 27.1404 1333.3L29.234 1336.71ZM54.7212 1306.77C57.5292 1301.13 59.9696 1295.03 62.0921 1288.58L58.2928 1287.33C56.2195 1293.63 53.8488 1299.55 51.1402 1304.99L54.7212 1306.77ZM67.254 1269.7C68.6547 1263.48 69.8423 1257.07 70.8495 1250.55L66.8963 1249.94C65.901 1256.39 64.7297 1262.71 63.3518 1268.82L67.254 1269.7ZM73.3109 1231.24C73.9757 1224.79 74.5017 1218.31 74.918 1211.86L70.9263 1211.6C70.5128 1218 69.9909 1224.44 69.332 1230.83L73.3109 1231.24ZM75.8762 1192.45C76.1113 1185.84 76.2577 1179.35 76.3489 1173.07L72.3493 1173.01C72.2585 1179.27 72.1127 1185.73 71.8787 1192.31L75.8762 1192.45ZM76.4931 1153.65C76.4995 1150.33 76.4995 1147.11 76.4995 1144H72.4995C72.4995 1147.11 72.4995 1150.32 72.4931 1153.64L76.4931 1153.65ZM76.4995 1144C76.4995 1140.48 76.485 1136.98 76.4564 1133.53L72.4566 1133.56C72.485 1137.01 72.4995 1140.49 72.4995 1144H76.4995ZM76.1123 1112.86C75.9352 1105.83 75.6997 1098.95 75.4104 1092.21L71.414 1092.38C71.7024 1099.1 71.9371 1105.96 72.1136 1112.97L76.1123 1112.86ZM74.3335 1071.56C73.9002 1064.52 73.4085 1057.64 72.8646 1050.92L68.8776 1051.25C69.4195 1057.94 69.9093 1064.79 70.341 1071.81L74.3335 1071.56ZM70.9878 1030.31C70.2749 1023.27 69.5062 1016.41 68.6901 1009.74L64.7197 1010.22C65.5325 1016.87 66.298 1023.7 67.0081 1030.71L70.9878 1030.31ZM65.9636 989.233C64.9561 982.226 63.9006 975.428 62.8084 968.829L58.8621 969.483C59.9498 976.054 61.001 982.824 62.0043 989.802L65.9636 989.233ZM59.2142 948.448C57.9026 941.437 56.5591 934.667 55.2002 928.122L51.2837 928.935C52.6377 935.456 53.976 942.201 55.2825 949.184L59.2142 948.448ZM50.8271 907.962C49.2492 900.971 47.6739 894.254 46.1262 887.79L42.2361 888.721C43.7809 895.173 45.352 901.872 46.9253 908.842L50.8271 907.962ZM41.243 867.708C39.5309 860.728 37.8949 854.063 36.3728 847.666L32.4815 848.592C34.0074 855.005 35.6469 861.684 37.3582 868.661L41.243 867.708ZM31.8371 827.579C30.3636 820.536 29.1213 813.833 28.177 807.398L24.2194 807.979C25.1785 814.515 26.437 821.3 27.9219 828.398L31.8371 827.579ZM26.2343 787.086C25.9887 780.102 26.2594 773.391 27.1533 766.836L23.19 766.296C22.2611 773.108 21.9843 780.049 22.2368 787.227L26.2343 787.086ZM31.9168 747.224C33.0309 744.102 34.3229 740.984 35.8067 737.857L32.193 736.143C30.653 739.387 29.3095 742.629 28.1495 745.879L31.9168 747.224ZM35.8067 737.857C37.353 734.599 38.8966 731.469 40.4663 728.452L36.9178 726.606C35.3212 729.675 33.7557 732.85 32.193 736.143L35.8067 737.857ZM51.1328 710.56C55.0495 704.929 59.3748 699.677 64.3983 694.658L61.5713 691.829C56.368 697.027 51.8917 702.464 47.8491 708.276L51.1328 710.56ZM80.2873 681.27C85.5037 677.522 91.3402 673.831 97.9457 670.13L95.9904 666.64C89.2727 670.405 83.3073 674.174 77.9532 678.021L80.2873 681.27ZM116.562 660.62C122.478 657.84 128.879 655.023 135.823 652.143L134.291 648.448C127.298 651.349 120.84 654.19 114.86 656.999L116.562 660.62ZM155.385 644.399C161.593 642.043 168.163 639.634 175.124 637.158L173.783 633.389C166.8 635.873 160.203 638.292 153.966 640.659L155.385 644.399ZM195.064 630.239C201.434 628.078 208.088 625.864 215.044 623.588L213.8 619.786C206.832 622.066 200.164 624.285 193.779 626.451L195.064 630.239ZM235.206 617.082C241.652 615.029 248.329 612.925 255.247 610.767L254.056 606.948C247.131 609.109 240.446 611.215 233.992 613.271L235.206 617.082ZM275.378 604.537C278.728 603.508 282.129 602.467 285.583 601.413L284.416 597.587C280.96 598.642 277.556 599.684 274.203 600.713L275.378 604.537ZM285.583 601.413C288.616 600.488 291.625 599.438 294.606 598.275L293.152 594.549C290.261 595.677 287.348 596.692 284.416 597.587L285.583 601.413ZM311.856 590.143C317.37 587.094 322.748 583.685 327.954 579.986L325.637 576.725C320.545 580.344 315.294 583.671 309.92 586.642L311.856 590.143ZM342.877 568.209C347.665 564.039 352.256 559.646 356.616 555.093L353.727 552.326C349.448 556.795 344.944 561.105 340.25 565.193L342.877 568.209ZM369.135 540.817C373.171 535.786 376.92 530.65 380.344 525.48L377.009 523.271C373.653 528.338 369.976 533.376 366.015 538.314L369.135 540.817ZM390.041 509.114C393.119 503.227 395.726 497.389 397.802 491.706L394.045 490.334C392.036 495.834 389.502 501.512 386.497 507.261L390.041 509.114ZM402.723 473.158C403.234 469.825 403.5 466.595 403.5 463.5H399.5C399.5 466.368 399.254 469.394 398.769 472.552L402.723 473.158ZM403.5 463.5C403.5 459.844 403.33 456.277 402.999 452.797L399.017 453.177C399.336 456.528 399.5 459.967 399.5 463.5H403.5ZM398.799 431.851C396.629 424.933 393.753 418.414 390.261 412.249L386.78 414.221C390.14 420.15 392.901 426.411 394.982 433.048L398.799 431.851ZM378.019 394.767C373.515 389.424 368.519 384.379 363.116 379.591L360.463 382.584C365.739 387.26 370.596 392.168 374.96 397.345L378.019 394.767ZM346.48 366.453C340.828 362.441 334.892 358.611 328.739 354.93L326.685 358.363C332.763 361.998 338.609 365.772 344.164 369.715L346.48 366.453ZM310.309 344.628C304.15 341.392 297.848 338.26 291.46 335.205L289.734 338.814C296.087 341.852 302.343 344.961 308.449 348.169L310.309 344.628ZM272.356 326.365C265.967 323.488 259.541 320.659 253.133 317.852L251.528 321.517C257.933 324.321 264.344 327.144 270.714 330.012L272.356 326.365ZM233.899 309.428C230.686 308.012 227.49 306.595 224.318 305.175L222.683 308.825C225.864 310.25 229.068 311.67 232.286 313.088L233.899 309.428ZM224.318 305.175C220.956 303.669 217.698 302.157 214.54 300.64L212.808 304.246C215.998 305.778 219.289 307.306 222.683 308.825L224.318 305.175ZM195.459 290.762C188.788 287.033 182.69 283.303 177.13 279.602L174.914 282.931C180.564 286.693 186.751 290.477 193.507 294.253L195.459 290.762ZM159.922 266.898C153.81 261.856 148.684 256.941 144.447 252.236L141.474 254.913C145.857 259.779 151.128 264.829 157.377 269.984L159.922 266.898ZM132.203 235.118C130.396 231.643 129.168 228.425 128.44 225.515L124.56 226.485C125.374 229.743 126.725 233.255 128.655 236.964L132.203 235.118ZM128.44 225.515L128.429 225.467L124.548 226.437L124.56 226.485L128.44 225.515ZM128.405 225.372L128.393 225.324L124.512 226.295L124.524 226.342L128.405 225.372ZM128.393 225.324C127.539 221.908 126.733 218.685 126.117 215.454L122.188 216.203C122.829 219.565 123.663 222.898 124.512 226.295L128.393 225.324ZM125.757 195.822C126.733 190.375 128.721 184.261 132.233 177.031L128.635 175.283C124.994 182.778 122.872 189.243 121.82 195.116L125.757 195.822ZM142.351 159.557C144.109 156.886 146.029 154.093 148.126 151.164L144.874 148.836C142.75 151.803 140.799 154.639 139.01 157.357L142.351 159.557ZM148.126 151.164C149.156 149.726 151.436 147.238 155.102 143.8L152.366 140.882C148.669 144.35 146.145 147.06 144.874 148.836L148.126 151.164ZM171.082 130.17C175.937 126.311 181.546 122.042 187.923 117.425L185.577 114.185C179.154 118.836 173.497 123.14 168.593 127.038L171.082 130.17ZM205.207 105.365C210.707 101.66 216.61 97.7998 222.918 93.807L220.779 90.427C214.439 94.4399 208.505 98.3208 202.973 102.048L205.207 105.365ZM240.927 82.7307C246.73 79.2597 252.812 75.7122 259.176 72.1008L257.201 68.622C250.811 72.2484 244.703 75.8112 238.874 79.2979L240.927 82.7307ZM277.655 61.8731C283.677 58.6216 289.916 55.3299 296.375 52.0066L294.544 48.4499C288.063 51.7853 281.8 55.0892 275.754 58.3534L277.655 61.8731ZM315.263 42.511C321.438 39.4781 327.79 36.4259 334.322 33.3605L332.623 29.7394C326.069 32.8149 319.695 35.8774 313.499 38.9208L315.263 42.511ZM353.537 24.5429C359.851 21.7094 366.318 18.8696 372.938 16.0281L371.36 12.3524C364.72 15.2025 358.234 18.0511 351.899 20.8935L353.537 24.5429ZM392.4 7.85592C395.648 6.52176 398.93 5.18822 402.246 3.85579L400.754 0.144209C397.429 1.48046 394.137 2.81786 390.88 4.15592L392.4 7.85592Z" fill="#868686"/>
</svg>
