<svg width="64" height="64" viewBox="0 0 64 64" fill="none" xmlns="http://www.w3.org/2000/svg">
<g clip-path="url(#clip0_351_20528)">
<path d="M42 10.54C42.0244 9.89508 41.7934 9.26656 41.3572 8.79098C40.9209 8.31539 40.3146 8.03115 39.67 8H2.32996C1.68534 8.03115 1.07903 8.31539 0.642766 8.79098C0.206498 9.26656 -0.0244957 9.89508 -3.59006e-05 10.54V61.45C-0.0272004 62.0966 0.20258 62.7277 0.63913 63.2055C1.07568 63.6832 1.68353 63.9689 2.32996 64H39.67C40.3164 63.9689 40.9243 63.6832 41.3608 63.2055C41.7974 62.7277 42.0271 62.0966 42 61.45V10.54ZM40 62H1.99996V10H40V62Z" fill="#5592BC"/>
<path d="M52.4301 6.59C53.7348 8.31752 54.4373 10.4251 54.4301 12.59C54.4301 15.2422 53.3765 17.7857 51.5011 19.6611C49.6258 21.5364 47.0822 22.59 44.4301 22.59C42.2652 22.5973 40.1576 21.8948 38.4301 20.59C39.2897 21.7362 40.3856 22.6842 41.6435 23.37C42.9014 24.0558 44.292 24.4633 45.7212 24.5648C47.1503 24.6664 48.5845 24.4597 49.9268 23.9587C51.2691 23.4577 52.488 22.6742 53.5011 21.6611C54.5142 20.648 55.2978 19.429 55.7988 18.0868C56.2998 16.7445 56.5065 15.3102 56.4049 13.8811C56.3033 12.452 55.8959 11.0614 55.2101 9.80345C54.5243 8.54552 53.5762 7.44963 52.4301 6.59Z" fill="#B6DCFC"/>
<path d="M44 0C41.6266 0 39.3066 0.703788 37.3332 2.02236C35.3598 3.34094 33.8217 5.21509 32.9135 7.4078C32.0052 9.60051 31.7676 12.0133 32.2306 14.3411C32.6936 16.6689 33.8365 18.8071 35.5147 20.4853C37.193 22.1635 39.3312 23.3064 41.6589 23.7694C43.9867 24.2324 46.3995 23.9948 48.5922 23.0866C50.7849 22.1783 52.6591 20.6402 53.9776 18.6668C55.2962 16.6935 56 14.3734 56 12C56 8.8174 54.7357 5.76515 52.4853 3.51472C50.2349 1.26428 47.1826 0 44 0V0ZM44 22C42.0222 22 40.0888 21.4135 38.4443 20.3147C36.7998 19.2159 35.5181 17.6541 34.7612 15.8268C34.0043 13.9996 33.8063 11.9889 34.1922 10.0491C34.578 8.10929 35.5304 6.32746 36.9289 4.92893C38.3275 3.53041 40.1093 2.578 42.0491 2.19215C43.9889 1.8063 45.9996 2.00433 47.8268 2.7612C49.6541 3.51808 51.2159 4.79981 52.3147 6.4443C53.4135 8.08879 54 10.0222 54 12C54 14.6522 52.9464 17.1957 51.0711 19.0711C49.1957 20.9464 46.6522 22 44 22Z" fill="#CDE3FA"/>
<path d="M63 32.34C62.8684 32.3408 62.7379 32.3155 62.6161 32.2658C62.4942 32.216 62.3834 32.1427 62.29 32.05L51 20.71C50.8362 20.5187 50.7505 20.2726 50.7603 20.0209C50.77 19.7693 50.8743 19.5305 51.0524 19.3524C51.2305 19.1743 51.4693 19.07 51.7209 19.0603C51.9726 19.0506 52.2187 19.1362 52.41 19.3L63.71 30.63C63.851 30.7699 63.9472 30.9486 63.9863 31.1433C64.0253 31.3381 64.0055 31.54 63.9293 31.7235C63.8532 31.9069 63.7241 32.0635 63.5586 32.1733C63.3931 32.2831 63.1986 32.3412 63 32.34Z" fill="#CDE3FA"/>
<path d="M50 14.91H49.8C49.6674 14.8862 49.541 14.8359 49.4284 14.7621C49.3157 14.6883 49.2191 14.5925 49.1444 14.4804C49.0697 14.3683 49.0184 14.2423 48.9936 14.1099C48.9688 13.9776 48.971 13.8415 49 13.71C49.3358 12.0195 48.9874 10.2648 48.0314 8.83077C47.0753 7.39671 45.5896 6.40029 43.9 6.06001C43.6348 6.00829 43.401 5.85333 43.25 5.62923C43.0991 5.40512 43.0433 5.13022 43.095 4.86501C43.1467 4.59979 43.3017 4.36598 43.5258 4.21501C43.7499 4.06405 44.0248 4.00829 44.29 4.06001C46.4992 4.50411 48.4421 5.80631 49.6925 7.68097C50.9429 9.55564 51.3988 11.8497 50.96 14.06C50.925 14.2917 50.8096 14.5038 50.6342 14.6591C50.4587 14.8145 50.2343 14.9033 50 14.91Z" fill="#CDE3FA"/>
<path d="M64 58H62V56H60V58H58V60H60V62H62V60H64V58Z" fill="#5592BC"/>
<path d="M42 6.54C42.0244 5.89508 41.7934 5.26656 41.3572 4.79098C40.9209 4.31539 40.3146 4.03115 39.67 4H2.32996C1.68534 4.03115 1.07903 4.31539 0.642766 4.79098C0.206498 5.26656 -0.0244957 5.89508 -3.59006e-05 6.54V57.45C-0.0272004 58.0966 0.20258 58.7277 0.63913 59.2055C1.07568 59.6832 1.68353 59.9689 2.32996 60H39.67C40.3164 59.9689 40.9243 59.6832 41.3608 59.2055C41.7974 58.7277 42.0271 58.0966 42 57.45V6.54ZM40 58H1.99996V6H40V58Z" fill="#5592BC"/>
<path d="M6 6H4V58H6V6Z" fill="#5592BC"/>
<path d="M10 6H8V58H10V6Z" fill="#5592BC"/>
<path d="M32 58H10V6H40V50L32 58Z" fill="white"/>
<path d="M46 50H34C32.8954 50 32 50.8954 32 52V64C32 65.1046 32.8954 66 34 66H46C47.1046 66 48 65.1046 48 64V52C48 50.8954 47.1046 50 46 50Z" fill="#EF9884"/>
<path d="M30 12H16V14H30V12Z" fill="#5592BC"/>
<path d="M13 14C13.5523 14 14 13.5523 14 13C14 12.4477 13.5523 12 13 12C12.4477 12 12 12.4477 12 13C12 13.5523 12.4477 14 13 14Z" fill="#5592BC"/>
<path d="M30 16H16V18H30V16Z" fill="#EF9884"/>
<path d="M13 18C13.5523 18 14 17.5523 14 17C14 16.4477 13.5523 16 13 16C12.4477 16 12 16.4477 12 17C12 17.5523 12.4477 18 13 18Z" fill="#EF9884"/>
<path d="M30 20H16V22H30V20Z" fill="#5592BC"/>
<path d="M13 22C13.5523 22 14 21.5523 14 21C14 20.4477 13.5523 20 13 20C12.4477 20 12 20.4477 12 21C12 21.5523 12.4477 22 13 22Z" fill="#5592BC"/>
<path d="M36 24H12V26H36V24Z" fill="#CDE3FA"/>
<path d="M50 28H14V30H50V28Z" fill="#5592BC"/>
<path d="M38 40H14V42H38V40Z" fill="#CDE3FA"/>
<path d="M50 44H12V46H50V44Z" fill="#5592BC"/>
<path d="M23.23 45.63L17.49 47.31L11.75 48.99L17.22 51.63L19.86 57.1L21.54 51.37L23.23 45.63Z" fill="#EF9884"/>
<path d="M16.4283 50.8383L12.1857 55.081L13.5999 56.4952L17.8425 52.2525L16.4283 50.8383Z" fill="#EF9884"/>
<path d="M38 32H12V38H38V32Z" fill="#87CFFF"/>
<path d="M50.9996 34.7621L46.757 39.0047L50.9996 43.2474L55.2422 39.0047L50.9996 34.7621Z" fill="#87CFFF"/>
<path d="M51.0033 50.7558L46.7606 54.9984L51.0033 59.2411L55.2459 54.9984L51.0033 50.7558Z" fill="#87CFFF"/>
<path d="M52 44H50V50H52V44Z" fill="#5592BC"/>
<path d="M52 28H50V34H52V28Z" fill="#5592BC"/>
<path d="M62 40H58C57.7348 40 57.4804 39.8946 57.2929 39.7071C57.1054 39.5196 57 39.2652 57 39C57 38.7348 57.1054 38.4804 57.2929 38.2929C57.4804 38.1054 57.7348 38 58 38H62C62.2652 38 62.5196 38.1054 62.7071 38.2929C62.8946 38.4804 63 38.7348 63 39C63 39.2652 62.8946 39.5196 62.7071 39.7071C62.5196 39.8946 62.2652 40 62 40Z" fill="#5592BC"/>
</g>
<defs>
<clipPath id="clip0_351_20528">
<rect width="64" height="64" fill="white"/>
</clipPath>
</defs>
</svg>
