<svg width="64" height="64" viewBox="0 0 64 64" fill="none" xmlns="http://www.w3.org/2000/svg">
<g clip-path="url(#clip0_351_20529)">
<path d="M27.5 38.56C19.5 38.56 13 30.27 13 20.08C13 9.89001 19.51 1.60001 27.5 1.60001C35.49 1.60001 42 9.89001 42 20.08C42 30.27 35.49 38.56 27.5 38.56Z" fill="#87CFFF"/>
<path d="M32 0C28.0444 0 24.1776 1.17298 20.8886 3.37061C17.5996 5.56824 15.0362 8.69181 13.5224 12.3463C12.0087 16.0009 11.6126 20.0222 12.3843 23.9018C13.156 27.7814 15.0608 31.3451 17.8579 34.1421C20.6549 36.9392 24.2186 38.844 28.0982 39.6157C31.9778 40.3874 35.9992 39.9913 39.6537 38.4776C43.3082 36.9638 46.4318 34.4004 48.6294 31.1114C50.827 27.8224 52 23.9556 52 20C52 14.6957 49.8929 9.60859 46.1421 5.85786C42.3914 2.10714 37.3043 0 32 0V0ZM32 38C28.4399 38 24.9598 36.9443 21.9997 34.9665C19.0397 32.9886 16.7326 30.1774 15.3702 26.8883C14.0078 23.5992 13.6513 19.98 14.3459 16.4884C15.0404 12.9967 16.7547 9.78942 19.2721 7.27208C21.7894 4.75473 24.9967 3.0404 28.4884 2.34587C31.98 1.65133 35.5992 2.00779 38.8883 3.37017C42.1774 4.73255 44.9886 7.03965 46.9665 9.99974C48.9443 12.9598 50 16.4399 50 20C50 24.7739 48.1036 29.3523 44.7279 32.7279C41.3523 36.1036 36.7739 38 32 38Z" fill="#5592BC"/>
<path d="M33 39C25.28 39 19 30.7 19 20.5C19 10.3 25.28 2 33 2C40.72 2 47 10.3 47 20.5C47 30.7 40.72 39 33 39Z" fill="#CDE3FA"/>
<path d="M31 0C27.68 0 25 9 25 20C25 31 27.69 40 31 40C34.31 40 37 31 37 20C37 9 34.31 0 31 0ZM31 38C29.49 38 26.71 31.17 26.71 20C26.71 8.83 29.49 2 31 2C32.51 2 35.28 8.83 35.28 20C35.28 31.17 32.51 38 31 38Z" fill="#5592BC"/>
<path d="M32 0C24.27 0 18 9 18 20C18 31 24.27 40 32 40C39.73 40 46 31 46 20C46 9 39.73 0 32 0ZM32 37.87C25.39 37.87 20 29.87 20 20C20 10.13 25.39 2.13 32 2.13C38.61 2.13 44 10.13 44 20C44 29.87 38.61 37.87 32 37.87Z" fill="#5592BC"/>
<path d="M50 16H14C13.7348 16 13.4804 15.8946 13.2929 15.7071C13.1054 15.5196 13 15.2652 13 15C13 14.7348 13.1054 14.4804 13.2929 14.2929C13.4804 14.1054 13.7348 14 14 14H50C50.2652 14 50.5196 14.1054 50.7071 14.2929C50.8946 14.4804 51 14.7348 51 15C51 15.2652 50.8946 15.5196 50.7071 15.7071C50.5196 15.8946 50.2652 16 50 16Z" fill="#5592BC"/>
<path d="M50 28H14C13.7348 28 13.4804 27.8946 13.2929 27.7071C13.1054 27.5196 13 27.2652 13 27C13 26.7348 13.1054 26.4804 13.2929 26.2929C13.4804 26.1054 13.7348 26 14 26H50C50.2652 26 50.5196 26.1054 50.7071 26.2929C50.8946 26.4804 51 26.7348 51 27C51 27.2652 50.8946 27.5196 50.7071 27.7071C50.5196 27.8946 50.2652 28 50 28Z" fill="#5592BC"/>
<path d="M55.5 4.51C55.2362 4.50625 54.9846 4.39842 54.8 4.21C54.6167 4.02189 54.5098 3.77244 54.5 3.51C54.5038 3.24623 54.6116 2.99463 54.8 2.81C54.9398 2.67296 55.1167 2.57995 55.3088 2.54251C55.501 2.50507 55.6998 2.52484 55.8808 2.59937C56.0618 2.6739 56.217 2.79991 56.3271 2.96179C56.4371 3.12366 56.4973 3.31428 56.5 3.51C56.5016 3.77093 56.4011 4.02214 56.22 4.21C56.1262 4.30569 56.0141 4.38156 55.8905 4.4331C55.7668 4.48463 55.634 4.51078 55.5 4.51Z" fill="#EF9884"/>
<path d="M32.34 20.35C32.2152 20.298 32.1022 20.2213 32.0078 20.1244C31.9135 20.0275 31.8398 19.9124 31.7912 19.7863C31.7426 19.6601 31.7201 19.5253 31.725 19.3902C31.73 19.255 31.7623 19.1223 31.82 19C31.8722 18.8789 31.9478 18.7693 32.0425 18.6776C32.1372 18.5858 32.2492 18.5137 32.3718 18.4654C32.4945 18.4171 32.6256 18.3935 32.7574 18.396C32.8892 18.3985 33.0193 18.427 33.14 18.48C33.2611 18.5322 33.3707 18.6078 33.4624 18.7025C33.5542 18.7972 33.6263 18.9091 33.6746 19.0318C33.723 19.1545 33.7466 19.2855 33.7441 19.4174C33.7415 19.5492 33.713 19.6792 33.66 19.8C33.582 19.9789 33.4532 20.131 33.2898 20.2376C33.1263 20.3442 32.9352 20.4007 32.74 20.4C32.6051 20.4004 32.4707 20.3836 32.34 20.35ZM33.92 16.91C33.6896 16.7798 33.5202 16.5635 33.449 16.3085C33.3777 16.0536 33.4105 15.7808 33.54 15.55C33.6028 15.4342 33.6879 15.332 33.7903 15.2491C33.8927 15.1663 34.0105 15.1045 34.1369 15.0674C34.2633 15.0302 34.3957 15.0184 34.5267 15.0326C34.6577 15.0467 34.7845 15.0866 34.9 15.15C35.1305 15.2802 35.2999 15.4965 35.3711 15.7515C35.4423 16.0064 35.4096 16.2792 35.28 16.51C35.1937 16.6678 35.0664 16.7994 34.9115 16.8909C34.7566 16.9824 34.5799 17.0305 34.4 17.03C34.2328 17.0281 34.0684 16.987 33.92 16.91ZM35.84 13.65C35.7319 13.5742 35.6398 13.4778 35.5691 13.3662C35.4985 13.2546 35.4506 13.1302 35.4283 13C35.406 12.8699 35.4096 12.7366 35.4391 12.6078C35.4686 12.4791 35.5233 12.3575 35.6 12.25C35.675 12.1411 35.7709 12.0481 35.8821 11.9765C35.9933 11.9048 36.1176 11.856 36.2478 11.8327C36.378 11.8095 36.5116 11.8123 36.6407 11.841C36.7698 11.8697 36.8919 11.9238 37 12C37.1082 12.0758 37.2002 12.1722 37.2709 12.2838C37.3416 12.3954 37.3895 12.5198 37.4118 12.65C37.4341 12.7801 37.4304 12.9134 37.4009 13.0422C37.3714 13.1709 37.3168 13.2925 37.24 13.4C37.147 13.5306 37.024 13.637 36.8813 13.7101C36.7386 13.7832 36.5804 13.8209 36.42 13.82C36.2138 13.8245 36.0112 13.7651 35.84 13.65ZM38.12 10.65C38.012 10.565 37.9227 10.4586 37.8576 10.3375C37.7926 10.2164 37.7532 10.0832 37.7419 9.94615C37.7306 9.80914 37.7478 9.67128 37.7922 9.54117C37.8366 9.41107 37.9073 9.29153 38 9.19C38.089 9.09224 38.1964 9.01308 38.3161 8.95709C38.4358 8.9011 38.5655 8.86941 38.6975 8.86383C38.8296 8.85825 38.9614 8.8789 39.0854 8.92459C39.2094 8.97027 39.3232 9.04009 39.42 9.13C39.5178 9.21894 39.5969 9.32637 39.6529 9.44609C39.7089 9.56581 39.7406 9.69544 39.7462 9.82749C39.7518 9.95953 39.7311 10.0914 39.6854 10.2154C39.6397 10.3394 39.5699 10.4531 39.48 10.55C39.3856 10.6518 39.2711 10.7328 39.1437 10.7879C39.0163 10.843 38.8788 10.8709 38.74 10.87C38.508 10.8647 38.2865 10.7718 38.12 10.61V10.65ZM40.74 7.93C40.5719 7.72775 40.4902 7.46741 40.5127 7.20537C40.5352 6.94333 40.6599 6.70069 40.86 6.53C40.9607 6.44368 41.0775 6.37824 41.2037 6.3375C41.33 6.29676 41.463 6.28153 41.5951 6.2927C41.7273 6.30387 41.8559 6.34121 41.9735 6.40255C42.0911 6.46389 42.1953 6.54801 42.28 6.65C42.4308 6.85138 42.5001 7.10218 42.4741 7.35239C42.4482 7.6026 42.3289 7.83383 42.14 8C41.9587 8.14549 41.7324 8.22328 41.5 8.22C41.3571 8.2225 41.2153 8.19434 41.0842 8.13741C40.9531 8.08049 40.8358 7.99612 40.74 7.89V7.93ZM43.74 5.63C43.6088 5.40159 43.573 5.13063 43.6404 4.87599C43.7078 4.62134 43.873 4.40358 44.1 4.27C44.214 4.20189 44.3403 4.15716 44.4718 4.1384C44.6032 4.11964 44.737 4.12724 44.8655 4.16075C44.9939 4.19426 45.1144 4.25301 45.2199 4.33358C45.3255 4.41414 45.4139 4.51491 45.48 4.63C45.6096 4.86083 45.6423 5.1336 45.5711 5.38853C45.4999 5.64347 45.3305 5.85976 45.1 5.99C44.9569 6.0821 44.7902 6.13073 44.62 6.13C44.4381 6.12856 44.26 6.07751 44.1049 5.98235C43.9499 5.8872 43.8237 5.75155 43.74 5.59V5.63ZM47.1 3.87C47.0598 3.74396 47.045 3.61119 47.0565 3.47939C47.068 3.34759 47.1055 3.21938 47.1669 3.10219C47.2283 2.98499 47.3123 2.88115 47.4142 2.79666C47.516 2.71217 47.6335 2.64873 47.76 2.61C48.012 2.53493 48.2833 2.5621 48.5154 2.68562C48.7475 2.80914 48.9216 3.01908 49 3.27C49.0402 3.39604 49.055 3.52881 49.0435 3.66061C49.032 3.79241 48.9945 3.92062 48.9331 4.03781C48.8717 4.15501 48.7877 4.25885 48.6859 4.34334C48.5841 4.42783 48.4665 4.49127 48.34 4.53C48.2403 4.54009 48.1398 4.54009 48.04 4.53C47.8345 4.52991 47.634 4.46651 47.4658 4.34841C47.2976 4.23032 47.1699 4.06327 47.1 3.87ZM50.78 3C50.78 2.73478 50.8854 2.48043 51.0729 2.29289C51.2605 2.10536 51.5148 2 51.78 2C52.0452 2 52.2996 2.10536 52.4871 2.29289C52.6747 2.48043 52.78 2.73478 52.78 3C52.78 3.26522 52.6747 3.51957 52.4871 3.70711C52.2996 3.89464 52.0452 4 51.78 4C51.5148 4 51.2605 3.89464 51.0729 3.70711C50.8854 3.51957 50.78 3.26522 50.78 3Z" fill="#EF9884"/>
<path d="M31.4 24C31.1391 24.0016 30.8879 23.9011 30.7 23.72C30.5162 23.5242 30.4096 23.2684 30.4 23C30.4 22.7348 30.5054 22.4804 30.6929 22.2929C30.8805 22.1054 31.1348 22 31.4 22C31.6652 22 31.9196 22.1054 32.1071 22.2929C32.2947 22.4804 32.4 22.7348 32.4 23C32.3904 23.2684 32.2838 23.5242 32.1 23.72C31.9094 23.8968 31.66 23.9965 31.4 24Z" fill="#EF9884"/>
<path d="M48.58 43.72C49.47 42.33 50.67 41.11 51.69 39.81C53.38 37.66 55.02 35.48 56.81 33.42C58.6 31.36 61.61 25.91 57.81 24.36C57.1908 24.1587 56.5404 24.0706 55.89 24.1C55.2 24.1 54.97 24.04 54.7 24.17C50.7 26.11 41.7 36.25 41.7 36.25C32.42 35.85 33 47.67 33 47.67V63H47V55.5L63 42.5V26.25C63 26.25 62.78 21.87 61.78 20.42C59.78 17.5 58.41 14.18 56.69 11.07C56.23 10.23 55.6 8.87999 54.62 8.50999C54.5153 8.46807 54.4023 8.45095 54.29 8.45999C53.89 8.45999 53.79 9.02999 53.67 9.45999C53.2211 11.2076 52.9563 12.9973 52.88 14.8C52.75 17.92 53.21 22.05 55.88 24.08" fill="white"/>
<path d="M48.58 43.72C49.47 42.33 50.67 41.11 51.69 39.81C53.38 37.66 55.02 35.48 56.81 33.42C58.6 31.36 61.61 25.91 57.81 24.36C57.1908 24.1587 56.5404 24.0706 55.89 24.1C55.2 24.1 54.97 24.04 54.7 24.17C50.7 26.11 41.7 36.25 41.7 36.25C32.42 35.85 33 47.67 33 47.67V63H47V55.5L63 42.5V26.25C63 26.25 62.78 21.87 61.78 20.42C59.78 17.5 58.41 14.18 56.69 11.07C56.23 10.23 55.6 8.87999 54.62 8.50999C54.5153 8.46807 54.4023 8.45095 54.29 8.45999C53.89 8.45999 53.79 9.02999 53.67 9.45999C53.2211 11.2076 52.9563 12.9973 52.88 14.8C52.75 17.92 53.21 22.05 55.88 24.08" stroke="#5592BC" stroke-width="2" stroke-linecap="round" stroke-linejoin="round"/>
<path d="M56.62 33.21C56.62 33.21 51 34.63 50.77 27.69L56.62 33.21Z" fill="white"/>
<path d="M56.62 33.21C56.62 33.21 51 34.63 50.77 27.69" stroke="#5592BC" stroke-width="2" stroke-miterlimit="10" stroke-linecap="round"/>
<path d="M15.41 43.72C14.52 42.33 13.32 41.11 12.3 39.81C10.61 37.66 9 35.48 7.18 33.42C5.36 31.36 2.38 25.91 6.18 24.36C6.79919 24.1587 7.44958 24.0706 8.1 24.1C8.79 24.1 9.02 24.04 9.29 24.17C13.29 26.11 22.29 36.25 22.29 36.25C31.49 35.85 30.92 47.67 30.92 47.67V63H17V55.5L1 42.5V26.25C1 26.25 1.21 21.87 2.21 20.42C4.21 17.5 5.58 14.18 7.29 11.07C7.75 10.23 8.38 8.88 9.36 8.51C9.46457 8.46772 9.5776 8.45059 9.69 8.46C10.09 8.46 10.19 9.03 10.31 9.46C10.7589 11.2076 11.0237 12.9973 11.1 14.8C11.23 17.92 10.77 22.05 8.1 24.08" fill="white"/>
<path d="M15.41 43.72C14.52 42.33 13.32 41.11 12.3 39.81C10.61 37.66 9 35.48 7.18 33.42C5.36 31.36 2.38 25.91 6.18 24.36C6.79919 24.1587 7.44958 24.0706 8.1 24.1C8.79 24.1 9.02 24.04 9.29 24.17C13.29 26.11 22.29 36.25 22.29 36.25C31.49 35.85 30.92 47.67 30.92 47.67V63H17V55.5L1 42.5V26.25C1 26.25 1.21 21.87 2.21 20.42C4.21 17.5 5.58 14.18 7.29 11.07C7.75 10.23 8.38 8.88 9.36 8.51C9.46456 8.46772 9.5776 8.45059 9.69 8.46C10.09 8.46 10.19 9.03 10.31 9.46C10.7589 11.2076 11.0237 12.9973 11.1 14.8C11.23 17.92 10.77 22.05 8.1 24.08" stroke="#5592BC" stroke-width="2" stroke-linecap="round" stroke-linejoin="round"/>
<path d="M7.38 33.21C7.38 33.21 13.04 34.63 13.23 27.69L7.38 33.21Z" fill="white"/>
<path d="M7.38 33.21C7.38 33.21 13.04 34.63 13.23 27.69" stroke="#5592BC" stroke-width="2" stroke-miterlimit="10" stroke-linecap="round"/>
<path d="M30.22 31.14L29.1 27.35L27.98 23.57L31.4 25.66L35.38 25.16L32.8 28.15L30.22 31.14Z" fill="#EF9884"/>
</g>
<defs>
<clipPath id="clip0_351_20529">
<rect width="64" height="64" fill="white"/>
</clipPath>
</defs>
</svg>
